<svg xmlns:dc="http://purl.org/dc/elements/1.1/" xmlns:cc="http://creativecommons.org/ns#" xmlns:rdf="http://www.w3.org/1999/02/22-rdf-syntax-ns#" xmlns="http://www.w3.org/2000/svg" version="1.1" id="svg7360" width="480" height="468.25176" viewBox="0 0 732.15997 714.23999">
      <g id="canvas" stroke="none" pointer-events="bounding-box">
        <path
           style="fill:#ffffff;stroke-width:1;fill-opacity:1;stroke:#000000;stroke-opacity:1;stroke-miterlimit:4;stroke-dasharray:none"
           d="m 365.00168,683.91509 c 0.43431,-0.2823 0.76253,-79.34102 0.33216,-80.00684 -0.20653,-0.31952 -1.35347,-0.37072 -5.12,-0.22864 -2.66963,0.10067 -11.76585,0.3976 -20.21385,0.65981 -19.16109,0.59472 -68.82115,2.36211 -107.36,3.82089 -16.104,0.60957 -31.944,1.2025 -35.2,1.3176 -3.256,0.11511 -6.17289,0.3392 -6.48198,0.49799 -0.52968,0.27212 -0.55727,1.70003 -0.48,24.83641 l 0.082,24.54768 1.64545,0.54611 c 6.3323,2.10163 24.25521,6.59331 35.40382,8.87261 24.5804,5.02534 77.96876,12.14131 108.23073,14.42573 11.27017,0.85075 28.30739,1.26595 29.16169,0.71065 z"
           id="area2_8" class="mapArea" />
        <path
           style="fill:#ffffff;stroke-width:1;fill-opacity:1;stroke:#000000;stroke-opacity:1;stroke-miterlimit:4;stroke-dasharray:none"
           d="m 381.79307,683.84039 c 28.56759,-1.39891 63.4215,-5.22528 100.76691,-11.06246 18.91645,-2.9567 33.8591,-5.97498 49.92,-10.08342 8.46253,-2.16474 9.18064,-2.41508 9.39667,-3.27581 0.32112,-1.27946 0.27469,-50.51533 -0.048,-50.83798 -0.43654,-0.43655 -1.96259,-0.5057 -34.1487,-1.54736 -97.54982,-3.15706 -140.24224,-4.10311 -141.216,-3.12935 -0.55769,0.5577 -0.55769,79.3143 0,79.872 0.48096,0.48096 6.32144,0.50547 15.32909,0.0644 z"
           id="area3_8" class="mapArea" />
        <path
           style="fill:#ffffff;stroke-width:1;fill-opacity:1;stroke:#000000;stroke-opacity:1;stroke-miterlimit:4;stroke-dasharray:none"
           d="m 550.45121,657.73716 c 27.08995,-7.96867 53.79875,-18.46134 78.66876,-30.90534 16.81706,-8.41459 25.93792,-13.70595 40.64,-23.57674 5.368,-3.60403 12.136,-8.14038 15.04,-10.0808 2.904,-1.94041 5.84115,-3.96329 6.52701,-4.49526 l 1.24698,-0.96723 -0.19197,-4.97587 c -0.42842,-11.10375 -3.08426,-30.88112 -8.53207,-63.53591 -3.98764,-23.90236 -7.12339,-41.2742 -7.52854,-41.70774 -0.32947,-0.35254 -9.95734,4.02877 -54.76057,24.91968 -29.89847,13.94109 -59.66864,27.81357 -66.156,30.82774 -8.40454,3.90496 -11.86387,5.66429 -12.03421,6.12032 -0.13149,0.352 -0.39693,27.41735 -0.58989,60.14522 -0.3319,56.29376 -0.30313,60.33478 0.4297,60.33478 0.0506,0 3.30899,-0.94627 7.2408,-2.10285 z"
           id="area3_7" class="mapArea" />
        <path
           style="fill:#ffffff;stroke-width:1;fill-opacity:1;stroke:#000000;stroke-opacity:1;stroke-miterlimit:4;stroke-dasharray:none"
           d="m 189.68083,598.96795 0.0808,-59.7521 -0.72084,-0.46025 c -0.55091,-0.35175 -66.46901,-30.24154 -129.447392,-58.69639 -2.847501,-1.28652 -4.02296,-1.67766 -4.277354,-1.42329 -0.800889,0.80089 -6.309788,30.69273 -9.539833,51.76409 -4.143146,27.02803 -7.234089,55.73143 -6.171353,57.30899 0.376569,0.55898 8.288175,5.74487 15.9151,10.43197 35.293425,21.68957 74.602422,40.56704 111.999992,53.78611 8.807,3.11303 20.749,6.93463 21.44,6.86106 0.63715,-0.0678 0.64036,-0.33402 0.72084,-59.82019 z"
           id="area2_7" class="mapArea" />
        <path
           style="fill:#ffffff;stroke-width:1;fill-opacity:1;stroke:#000000;stroke-opacity:1;stroke-miterlimit:4;stroke-dasharray:none"
           d="m 231.67999,607.67032 c 69.17502,-2.56061 108.24668,-3.92397 124.70102,-4.3514 4.60957,-0.11971 8.56957,-0.33417 8.8,-0.47654 0.54794,-0.33856 0.79459,-46.64157 0.25382,-47.65197 -0.20691,-0.38662 -0.67331,-0.63254 -1.20611,-0.63597 -1.89331,-0.0122 -5.40304,-1.00332 -7.99539,-2.25811 -4.71699,-2.28317 -8.58621,-6.89456 -9.64605,-11.49632 -0.1824,-0.792 -0.33517,-2.61283 -0.33949,-4.0463 -0.01,-3.24995 0.79677,-5.99888 2.56071,-8.72803 1.50339,-2.32605 1.39539,-2.71844 -0.84039,-3.05373 -0.7982,-0.11968 -3.20556,-0.64515 -5.34969,-1.16768 -22.68373,-5.52813 -42.21637,-17.88515 -55.20427,-34.9241 -1.17379,-1.5399 -2.34096,-2.7999 -2.59372,-2.8 -0.25275,-9e-5 -3.20475,1.533 -6.56,3.40685 -9.02953,5.04288 -74.2392,41.71171 -81.55531,45.86032 l -6.30513,3.57536 v 34.992 c 0,27.6897 0.0835,35.02739 0.4,35.16176 0.22,0.0934 1.84,0.099 3.6,0.0125 1.76,-0.0864 18.536,-0.72486 37.28,-1.41869 z"
           id="area2_6" class="mapArea" />
        <path
           style="fill:#ffffff;stroke-width:1;fill-opacity:1;stroke:#000000;stroke-opacity:1;stroke-miterlimit:4;stroke-dasharray:none"
           d="m 542.02673,607.12001 c 0.16362,-0.31673 0.36394,-15.04134 0.46112,-33.89766 0.15859,-30.76135 0.13091,-33.3728 -0.35802,-33.79207 -0.49424,-0.4238 -15.22409,-8.72217 -69.92617,-39.39424 -12.11997,-6.79583 -22.22025,-12.35603 -22.44505,-12.35603 -0.22484,0 -1.53341,1.404 -2.90794,3.12 -1.37456,1.716 -4.23427,4.85204 -6.35494,6.96893 -14.56836,14.54266 -33.8072,24.13962 -55.47834,27.67443 -1.28845,0.21015 -2.41238,0.56394 -2.49769,0.78621 -0.0853,0.22224 0.34505,1.32352 0.95625,2.44726 1.5664,2.87978 2.12403,5.06084 2.12403,8.30756 0,6.62864 -3.64176,12.17856 -10.08,15.3615 -2.39667,1.1849 -5.9928,2.19587 -7.856,2.20854 -0.4488,0.003 -0.9888,0.17837 -1.2,0.38957 -0.29171,0.29171 -0.38399,6.05616 -0.38399,23.98874 0,22.1616 0.0342,23.62173 0.55999,23.8824 0.308,0.15273 5.816,0.30384 12.24,0.33577 22.40324,0.11146 80.76016,1.6906 137.28,3.71479 26.63677,0.95395 25.51107,0.94288 25.86675,0.2543 z"
           id="area3_6" class="mapArea" />
        <path
           style="fill:#ffffff;stroke-width:1;fill-opacity:1;stroke:#000000;stroke-opacity:1;stroke-miterlimit:4;stroke-dasharray:none"
           d="m 371.11784,553.42207 c 4.99795,-1.13043 10.40979,-5.35942 12.50512,-9.77197 6.14643,-12.94384 -6.84387,-26.69974 -22.18297,-23.4903 -7.17008,1.50019 -13.04397,7.06122 -14.4448,13.67542 -1.98058,9.35136 5.26982,18.41178 16.05465,20.06266 2.22592,0.34074 5.24502,0.16269 8.068,-0.47581 z"
           id="area3_5" class="mapArea" />
        <path
           style="fill:#ffffff;stroke-width:1;fill-opacity:1;stroke:#000000;stroke-opacity:1;stroke-miterlimit:4;stroke-dasharray:none"
           d="m 592.86289,515.16198 c 27.5974,-12.8689 57.44908,-26.78288 66.33708,-30.91997 8.888,-4.13709 16.35459,-7.67773 16.59245,-7.86813 0.55235,-0.44208 0.41482,-1.48825 -1.4376,-10.93389 -3.46739,-17.6806 -8.3849,-36.32304 -13.96979,-52.96 -1.66122,-4.94854 -1.66726,-4.95993 -2.62506,-4.93417 -0.8719,0.0234 -188.02041,88.37021 -188.78754,89.12048 -0.19549,0.1912 -0.0789,0.51478 0.32,0.88809 0.34515,0.32301 12.72355,7.36448 27.50755,15.64775 14.784,8.28326 30.984,17.37481 36,20.20345 5.016,2.82867 9.29232,5.14557 9.50291,5.14871 0.21062,0.003 22.96262,-10.52343 50.56,-23.39232 z"
           id="area3_4" class="mapArea" />
        <path
           style="fill:#ffffff;stroke-width:1;fill-opacity:1;stroke:#000000;stroke-opacity:1;stroke-miterlimit:4;stroke-dasharray:none"
           d="m 211.9168,526.11286 c 11.83775,-6.66992 28.14719,-15.8529 36.24319,-20.40656 10.69268,-6.01424 14.72,-8.43338 14.72,-8.84208 0,-0.43069 -5.36594,-3.10099 -22.88,-11.38605 -12.584,-5.95286 -54.91255,-25.98198 -94.06344,-44.50915 -53.882704,-25.49859 -71.304124,-33.61005 -71.679996,-33.37447 -1.145114,0.71783 -10.616038,33.39895 -14.723315,50.80544 -2.478499,10.50378 -4.142838,18.42688 -3.967027,18.88503 0.08585,0.22374 23.006566,10.74793 50.934928,23.38716 27.92837,12.63924 57.97885,26.25152 66.77885,30.24957 8.8,3.99802 16.25057,7.28019 16.55681,7.2937 0.30625,0.0134 10.24225,-5.43267 22.08,-12.10259 z"
           id="area2_5" class="mapArea" />
        <path
           style="fill:#ffffff;stroke-width:1;fill-opacity:1;stroke:#000000;stroke-opacity:1;stroke-miterlimit:4;stroke-dasharray:none"
           d="m 387.51998,524.4294 c 19.72711,-3.66054 37.72365,-12.72531 51.32698,-25.85312 3.06,-2.95305 8.23085,-8.71977 9.34918,-10.42656 0.5177,-0.79011 0.51443,-0.85977 -0.0658,-1.41017 -0.53705,-0.50938 -66.45084,-37.45956 -66.82249,-37.45956 -0.0801,0 -1.1992,0.79421 -2.48682,1.76487 -2.71152,2.04413 -6.19862,3.50329 -9.59123,4.01337 -1.43747,0.21613 -2.50515,0.55341 -2.74986,0.86871 -0.31376,0.40425 -0.39894,7.17728 -0.3951,31.41421 0.003,16.99436 0.1239,31.08649 0.26938,31.3158 0.14547,0.22935 1.25926,0.55581 2.4751,0.72547 4.20176,0.58644 7.90618,2.22804 11.10461,4.92103 1.52528,1.28425 1.35869,1.28147 7.58601,0.12595 z"
           id="area3_3" class="mapArea" />
        <path
           style="fill:#ffffff;stroke-width:1;fill-opacity:1;stroke:#000000;stroke-opacity:1;stroke-miterlimit:4;stroke-dasharray:none"
           d="m 352.96523,523.48655 c 3.08234,-2.316 6.11076,-3.55459 10.02877,-4.1016 1.20672,-0.16848 2.28672,-0.39897 2.4,-0.51225 0.3632,-0.36308 0.41008,-62.59399 0.0475,-63.03088 -0.18032,-0.21728 -1.44243,-0.57415 -2.80467,-0.79303 -4.11687,-0.66153 -7.30647,-2.08748 -10.50979,-4.69859 -0.72212,-0.58861 -1.46196,-1.07021 -1.64404,-1.07021 -0.25488,0 -48.82145,27.01357 -61.82494,34.38807 -1.48046,0.83961 -2.45361,1.60409 -2.50975,1.97165 -0.22549,1.47628 10.13808,12.9318 15.93169,17.61033 12.00666,9.69574 25.61683,16.40835 40.45062,19.95046 8.31427,1.98535 8.17805,1.9816 10.43462,0.28605 z"
           id="area2_4" class="mapArea" />
        <path
           style="fill:#ffffff;stroke-width:1;fill-opacity:1;stroke:#000000;stroke-opacity:1;stroke-miterlimit:4;stroke-dasharray:none"
           d="m 274.43783,490.95974 c 6.17884,-3.46682 9.59217,-5.56109 9.66299,-5.92883 0.0602,-0.31268 -0.60323,-1.68058 -1.47433,-3.03972 -1.99725,-3.11625 -5.12923,-9.35139 -6.78511,-13.50771 -7.2384,-18.16873 -7.22856,-39.39949 0.0267,-57.6879 0.71471,-1.80157 2.47004,-5.54519 3.90072,-8.31911 2.2558,-4.37372 2.53949,-5.10179 2.13621,-5.48224 C 281.13327,396.26614 112.10765,310.72 111.44086,310.72 c -0.36003,0 -0.79204,0.36745 -1.03461,0.88 -2.98237,6.30164 -8.51002,19.3672 -13.504411,31.92 -9.773977,24.56569 -22.872428,61.64732 -22.169503,62.76166 0.182576,0.28947 8.462489,4.37296 18.399807,9.07446 51.079837,24.16669 115.407467,54.61015 141.587847,67.00733 16.192,7.66739 29.60298,13.94429 29.80218,13.94864 0.19919,0.004 4.66124,-2.40422 9.91566,-5.35235 z"
           id="area2_2" class="mapArea" />
        <path
           style="fill:#ffffff;stroke-width:1;fill-opacity:1;stroke:#000000;stroke-opacity:1;stroke-miterlimit:4;stroke-dasharray:none"
           d="m 493.31508,484.37446 c 13.88471,-6.57005 56.53623,-26.75322 94.78118,-44.85149 38.24499,-18.09827 69.66035,-33.13773 69.81194,-33.42096 0.19011,-0.35526 -0.64391,-3.09382 -2.68867,-8.82851 -5.71997,-16.04183 -11.28628,-30.00883 -19.4458,-48.7935 -2.6375,-6.072 -5.58064,-12.912 -6.54032,-15.2 -0.95968,-2.288 -3.48652,-8.012 -5.61523,-12.72 -2.94582,-6.51524 -4.00557,-8.56 -4.43641,-8.56 -0.31133,0 -17.24659,8.41238 -37.63392,18.6942 -20.38733,10.2818 -57.65987,29.06666 -82.82787,41.74416 -33.46694,16.85776 -45.78499,23.20714 -45.85296,23.63495 -0.0511,0.32176 0.77085,2.08019 1.82669,3.90768 4.84979,8.3944 8.15734,17.80812 9.84457,28.019 0.82951,5.02016 0.82951,18.33984 0,23.36 -1.96908,11.91671 -5.93478,22.24384 -12.27065,31.95431 -1.13197,1.73488 -2.00538,3.31248 -1.94093,3.50582 0.17575,0.52723 16.28762,9.49072 17.06838,9.49562 0.3713,0.003 12.0353,-5.37123 25.92,-11.94128 z"
           id="area3_2" class="mapArea" />
        <path
           style="fill:#ffffff;stroke-width:1;fill-opacity:1;stroke:#000000;stroke-opacity:1;stroke-miterlimit:4;stroke-dasharray:none"
           d="m 451.43355,483.5871 c 8.88387,-13.48947 13.31392,-28.09907 13.31392,-43.90711 0,-10.95222 -1.87888,-20.35539 -6.06262,-30.34137 -2.41991,-5.77591 -6.42106,-12.85863 -7.26407,-12.85863 -0.44803,0 -66.40771,33.1385 -66.91052,33.6162 -0.1714,0.16281 -0.008,1.13321 0.4,2.37622 1.47305,4.4872 0.70368,10.3465 -1.84503,14.05088 -0.56576,0.8223 -0.98288,1.72851 -0.92694,2.01386 0.0887,0.45254 14.66704,8.71193 58.93168,33.3879 4.37251,2.4375 8.12748,4.36374 8.34441,4.28048 0.21693,-0.0832 1.12557,-1.26154 2.01917,-2.61843 z"
           id="area3_1" class="mapArea" />
        <path
           style="fill:#ffffff;stroke-width:1;fill-opacity:1;stroke:#000000;stroke-opacity:1;stroke-miterlimit:4;stroke-dasharray:none"
           d="m 308.19898,472.06387 c 12.21054,-6.8289 26.55701,-14.84522 31.88101,-17.81408 5.324,-2.9689 9.68,-5.5722 9.68,-5.78512 0,-0.21293 -0.50922,-1.23258 -1.13162,-2.26589 -2.44733,-4.0632 -3.05741,-8.90842 -1.69882,-13.49219 0.41047,-1.38477 0.57348,-2.44464 0.40103,-2.60704 -0.37143,-0.34976 -63.47479,-32.33956 -63.79331,-32.33956 -1.2343,0 -6.19484,10.06893 -8.67079,17.6 -2.71109,8.24631 -3.82649,15.33546 -3.82649,24.32 0,10.13127 1.4604,18.21984 5.02654,27.84 2.36654,6.38407 8.19817,16.96 9.35183,16.96 0.31879,0 10.57007,-5.58726 22.78062,-12.41612 z"
           id="area2_3" class="mapArea" />
        <path
           style="fill:#ffffff;stroke-width:1;fill-opacity:1;stroke:#000000;stroke-opacity:1;stroke-miterlimit:4;stroke-dasharray:none"
           d="m 370.87998,454.22175 c 6.06541,-1.42528 11.36064,-5.93776 13.38397,-11.4055 3.40535,-9.2024 -2.90451,-19.32787 -13.63104,-21.87389 -3.37696,-0.80153 -8.35033,-0.51555 -11.5862,0.66624 -6.63306,2.42247 -11.20333,7.58432 -12.19856,13.77751 -1.30922,8.14713 4.99833,16.65196 13.95574,18.81737 2.54928,0.61626 7.49318,0.62525 10.07609,0.0182 z"
           id="area2_1" class="mapArea" />
        <path
           style="fill:#ffffff;stroke-width:1;fill-opacity:1;stroke:#000000;stroke-opacity:1;stroke-miterlimit:4;stroke-dasharray:none"
           d="m 349.62098,427.52633 c 3.00825,-3.82902 7.48435,-6.38506 12.83469,-7.32912 l 3.14432,-0.55478 V 405.90275 392.1631 l -20.16,-14.78208 c -12.60327,-9.24119 -20.44279,-14.78938 -20.9144,-14.80157 -1.19332,-0.0307 -9.36354,4.32528 -14.4456,7.70186 -8.08071,5.36889 -15.27766,11.88192 -20.9155,18.92787 -3.0264,3.78224 -5.384,7.25232 -5.23368,7.70329 0.12364,0.37088 63.15289,32.48669 63.80793,32.51255 0.20835,0.008 1.05533,-0.84618 1.88224,-1.89869 z"
           id="area1_9" class="mapArea" />
        <path
           style="fill:#ffffff;stroke-width:1;fill-opacity:1;stroke:#000000;stroke-opacity:1;stroke-miterlimit:4;stroke-dasharray:none"
           d="m 417.59579,412.70198 c 22.36467,-11.28103 33.15005,-16.88173 33.22122,-17.25136 0.22044,-1.14464 -6.32036,-9.17264 -11.82036,-14.50803 -5.84908,-5.67402 -12.75078,-10.7538 -20.40492,-15.0184 -3.71367,-2.06912 -9.21517,-4.63239 -9.95175,-4.63671 -0.56672,-0.003 -40.78716,29.68931 -41.84,30.88829 l -0.72,0.8199 0.005,13.02218 c 0.003,7.16218 0.11069,13.1792 0.24,13.37114 0.12932,0.19193 1.3865,0.53212 2.7938,0.75593 5.35468,0.85168 9.86396,3.34813 12.92179,7.15383 0.94624,1.17769 1.88224,2.1336 2.08,2.12425 0.19773,-0.009 15.26163,-7.53382 33.47532,-16.72102 z"
           id="area1_10" class="mapArea" />
        <path
           style="fill:#ffffff;fill-opacity:1;stroke-width:1;stroke:#000000;stroke-opacity:1;stroke-miterlimit:4;stroke-dasharray:none"
           d="m 283.25691,396.07999 c 0.27458,-0.22 1.10754,-1.3119 1.85103,-2.42643 2.32296,-3.48227 6.35882,-8.2863 10.1268,-12.05427 6.89086,-6.89085 14.88415,-12.66739 24.02501,-17.36224 l 5.22024,-2.68115 v -17.9968 c 0,-13.90918 -0.0908,-18.11386 -0.4,-18.51222 -0.22,-0.28349 -37.38178,-21.65211 -82.58172,-47.48582 -65.55427,-37.46709 -82.29063,-46.90578 -82.72,-46.65109 -0.94455,0.56031 -14.21417,20.70526 -22.53437,34.21003 -11.44217,18.57213 -25.05763,43.46574 -24.36981,44.55615 0.24121,0.38241 170.13677,86.76567 170.70474,86.79469 0.0984,0.005 0.40349,-0.17085 0.67808,-0.39085 z"
           id="area1_6" class="mapArea" />
        <path
           style="fill:#ffffff;stroke-width:1;fill-opacity:1;stroke:#000000;stroke-opacity:1;stroke-miterlimit:4;stroke-dasharray:none"
           d="m 527.67998,357.22307 c 86.68783,-43.65082 90.86812,-45.77977 91.1055,-46.3984 0.53549,-1.39544 -11.35568,-24.71895 -20.77402,-40.74643 -8.7143,-14.82947 -23.85088,-38.14181 -25.06867,-38.60912 -0.47053,-0.18055 -163.55282,92.4503 -164.22281,93.27865 -0.30912,0.38218 -0.39888,4.42541 -0.3951,17.79338 0.003,9.51437 0.11069,17.46441 0.24,17.66678 0.12931,0.20237 1.7471,1.03798 3.5951,1.85693 14.3688,6.36752 27.48211,16.82733 37.02551,29.53321 2.03571,2.71034 2.86678,3.59008 3.2542,3.44471 0.28615,-0.10736 34.14429,-17.12624 75.24029,-37.81971 z"
           id="area1_8" class="mapArea" />
        <path
           style="fill:#ffffff;stroke-width:1;fill-opacity:1;stroke:#000000;stroke-opacity:1;stroke-miterlimit:4;stroke-dasharray:none"
           d="m 369.49227,389.187 c 36.77171,-27.17133 38.15943,-28.23065 38.35367,-29.2776 0.28208,-1.52048 0.0387,-16.77267 -0.27258,-17.08332 -0.29088,-0.29031 -80.55933,-0.55444 -81.73337,-0.26896 l -0.72,0.17507 0.0259,8.87392 c 0.0246,8.4935 0.0555,8.92592 0.72,10.088 1.03248,1.80569 38.64323,29.31276 40.10649,29.33235 0.74368,0.01 1.67773,-0.47818 3.52,-1.83946 z"
           id="area1_7" class="mapArea" />
        <path
           style="fill:#ffffff;fill-opacity:1;stroke-width:1;stroke:#000000;stroke-opacity:1;stroke-miterlimit:4;stroke-dasharray:none"
           d="m 407.66872,341.46102 c 0.35901,-0.67082 0.49424,-120.82398 0.13702,-121.75485 -0.10681,-0.2784 -0.37414,-0.50617 -0.59408,-0.50617 -0.22195,0 -8.9855,19.11206 -19.69868,42.96 -23.80455,52.98973 -21.74077,48.50579 -22.05555,47.92 -0.14186,-0.264 -9.08426,-20.28 -19.872,-44.48 -10.78772,-24.2 -19.80458,-44.20983 -20.03748,-44.46629 -0.29244,-0.32209 -0.52608,-0.36362 -0.75539,-0.13429 -0.22873,0.22874 -0.25433,18.9674 -0.0823,60.25213 0.24499,58.79504 0.26134,59.92867 0.87085,60.3743 0.5287,0.38653 6.65974,0.45415 41.18873,0.45415 39.78048,0 40.57402,-0.0118 40.89885,-0.61898 z"
           id="area1_5" class="mapArea" />
        <path
           style="fill:#ffffff;fill-opacity:1;stroke-width:1;stroke:#000000;stroke-opacity:1;stroke-miterlimit:4;stroke-dasharray:none"
           d="m 324.20344,270.08 -0.20608,-52.96 -13.23643,-29.6 c -7.28003,-16.28 -18.70321,-41.912 -25.38483,-56.96 -6.68163,-15.048 -12.31774,-27.71824 -12.5247,-28.15609 -0.20695,-0.43785 -0.62883,-0.84472 -0.93749,-0.90416 -0.86827,-0.16722 -16.81812,13.96587 -30.30713,26.855 -16.3103,15.58495 -28.98929,29.50986 -41.48836,45.56525 -16.16354,20.76249 -40.61341,54.53505 -40.37548,55.77055 0.0681,0.35344 29.28492,17.22973 81.99635,47.36289 66.05476,37.76103 81.96598,46.73382 82.28041,46.40019 0.30486,-0.32352 0.34489,-11.95116 0.18374,-53.37363 z"
           id="area1_2" class="mapArea" />
        <path
           style="fill:#ffffff;fill-opacity:1;stroke-width:1;stroke-miterlimit:4;stroke-dasharray:none;stroke:#000000;stroke-opacity:1"
           d="m 490.55998,277.28941 c 44.44,-25.29876 80.98,-46.14401 81.2,-46.32277 0.22,-0.17875 0.4,-0.49965 0.4,-0.7131 0,-0.44664 -10.4314,-15.08694 -16.31197,-22.89354 -19.40032,-25.75454 -40.80006,-51.03482 -61.48361,-72.63282 -13.02957,-13.60563 -32.96426,-32.7224 -34.30656,-32.89898 -0.61725,-0.0812 -0.97114,0.52864 -3.06384,5.28 -2.96627,6.73465 -23.35456,52.30899 -37.7608,84.40746 l -10.91322,24.31567 v 53.631 c 0,29.49705 0.10436,53.73533 0.23188,53.86285 0.12752,0.12755 0.45152,0.17114 0.72,0.0969 0.26848,-0.0742 36.84812,-20.83393 81.28812,-46.1327 z"
           id="area1_4" class="mapArea" />
        <path
           style="fill:#ffffff;fill-opacity:1;stroke-width:1;stroke:#000000;stroke-opacity:1;stroke-miterlimit:4;stroke-dasharray:none"
           d="m 366.84152,306.71571 c 0.86202,-1.82513 41.74179,-92.82334 61.21014,-136.25352 9.05763,-20.2058 16.42141,-36.9818 16.36397,-37.28 -0.0978,-0.50783 -5.07264,-0.54219 -78.49564,-0.54219 -71.34623,0 -78.40003,0.0457 -78.48907,0.50799 -0.0538,0.27939 8.53102,19.86339 19.07739,43.51999 18.00755,40.39284 57.4136,128.66042 58.3158,130.62449 0.55034,1.19803 1.27731,0.99018 2.01741,-0.57676 z"
           id="area1_3" class="mapArea" />
        <path
           style="fill:#ffffff;fill-opacity:1;stroke-width:1;stroke:#000000;stroke-opacity:1;opacity:1;stroke-miterlimit:4;stroke-dasharray:none"
           d="m 445.56709,131.12 c 0.8975,-1.3992 13.31289,-29.61811 13.31289,-30.25888 0,-1.060638 -14.99469,-14.105166 -30.56,-26.585486 -14.6398,-11.738243 -27.80124,-21.402694 -42.72,-31.369311 -11.89344,-7.945533 -19.41427,-12.615366 -19.97235,-12.401215 -2.31356,0.887796 -29.6286,20.14116 -46.10764,32.499579 -19.06675,14.299056 -46.02089,35.978572 -46.40785,37.326343 -0.11148,0.38829 0.25495,1.67975 0.90794,3.2 3.1316,7.29081 12.18046,27.56275 12.45782,27.90897 0.25481,0.31806 16.53538,0.4 79.47389,0.4 h 79.15344 z"
           id="area1_1" class="mapArea" />
      </g>
    </svg>
