<?xml version="1.0" encoding="UTF-8" standalone="no"?>
<!-- Created with Inkscape (http://www.inkscape.org/) -->

<svg
   xmlns:svg="http://www.w3.org/2000/svg"
   xmlns="http://www.w3.org/2000/svg"
   xmlns:sodipodi="http://sodipodi.sourceforge.net/DTD/sodipodi-0.dtd"
   xmlns:inkscape="http://www.inkscape.org/namespaces/inkscape"
   version="1.1"
   id="svg4216"
   width="2288"
   height="2232"
   viewBox="0 0 2288 2232"
   sodipodi:docname="map.svg"
   inkscape:version="0.92.2 (5c3e80d, 2017-08-06)">
  <sodipodi:namedview
     pagecolor="#ffffff"
     bordercolor="#666666"
     borderopacity="1"
     objecttolerance="10"
     gridtolerance="10"
     guidetolerance="10"
     inkscape:pageopacity="0"
     inkscape:pageshadow="2"
     inkscape:window-width="1440"
     inkscape:window-height="790"
     id="namedview6408"
     showgrid="false"
     inkscape:zoom="0.30009657"
     inkscape:cx="1110.6774"
     inkscape:cy="1116"
     inkscape:window-x="287"
     inkscape:window-y="1103"
     inkscape:window-maximized="0"
     inkscape:current-layer="svg4216" />
  <defs
     id="defs4220" />
  <g
     id="5RP">
    <path
       inkscape:connector-curvature="0"
       id="5RP_area"
       d="m 1139,2012 v -120 h -3.75 c -9.6112,0.01 -177.61068,5.726 -294.25,10.018 -162.19931,5.9685 -213.72079,7.9184 -225.7565,8.5443 l -12.25651,0.6373 0.25651,72.5368 0.2565,72.5368 8,2.3966 c 17.27332,5.1747 58.20796,15.6178 81.5,20.792 31.85967,7.0774 54.59274,11.2165 98.57376,17.9474 109.02061,16.6849 199.17392,27.4964 267.42624,32.0706 30.2279,2.0259 32.1513,2.1033 57.75,2.325 L 1139,2132 Z"
       style="fill:#ffffff;stroke:#000000;stroke-opacity:1" />
    <g
       style="stroke:#000000;stroke-opacity:1"
       id="5RP_txt">
      <path
         inkscape:connector-curvature="0"
         style="fill:#ffffff;stroke:#000000;stroke-opacity:1"
         d="m 856.13704,2010.3046 c -3.88496,-2.0847 -6.72816,-6.3218 -5.8237,-8.6788 1.00836,-2.6277 6.16505,-2.0708 8.0947,0.8742 1.75527,2.6789 5.37626,3.3157 7.39196,1.3 0.66,-0.66 1.2,-2.8996 1.2,-4.9769 0,-2.9004 -0.56622,-4.148 -2.43973,-5.3756 -2.24313,-1.4697 -2.726,-1.4627 -5.99237,0.087 -2.03272,0.9646 -4.57423,1.4294 -5.94047,1.0865 -2.37503,-0.5961 -2.38104,-0.6328 -1.12081,-6.8603 0.69687,-3.4435 1.56335,-7.9485 1.92552,-10.011 l 0.65849,-3.75 H 864.04531 874 v 3.5 3.5 h -6.88342 c -6.54821,0 -6.9067,0.1217 -7.36133,2.5 -0.44962,2.352 -0.22432,2.5 3.8067,2.5 8.05692,0 13.67766,7.6827 11.51007,15.7325 -2.25796,8.3855 -11.49215,12.5659 -18.93498,8.5721 z"
         id="path4536" />
      <path
         inkscape:connector-curvature="0"
         style="fill:#ffffff;stroke:#000000;stroke-opacity:1"
         d="m 880,1992 v -19 l 9.25,0.024 c 5.0875,0.013 11.05,0.4395 13.25,0.9476 8.44392,1.9501 11.46526,11.2171 5.57692,17.1054 -1.60769,1.6077 -3.74519,2.9331 -4.75,2.9453 -1.66494,0.02 -1.64032,0.1755 0.27768,1.75 2.05752,1.6892 6.92455,8.4936 9.28259,12.9778 1.14889,2.1848 1.0445,2.2499 -3.60201,2.2482 -4.60251,0 -4.89682,-0.1785 -7.70961,-4.6306 -5.0487,-7.991 -7.49331,-10.3676 -10.66446,-10.3676 H 888 v 7.5 7.5 h -4 -4 v -19 z"
         id="path4534" />
      <path
         inkscape:connector-curvature="0"
         style="fill:#ffffff;stroke:#000000;stroke-opacity:1"
         d="m 901.42857,1987.4286 c 3.87871,-3.8787 1.17679,-6.7316 -6.86011,-7.2433 L 888,1979.767 v 4.6165 4.6165 h 5.92857 c 4.05628,0 6.42484,-0.4963 7.5,-1.5714 z"
         id="path4532" />
      <path
         inkscape:connector-curvature="0"
         style="fill:#ffffff;stroke:#000000;stroke-opacity:1"
         d="m 918,1991.8715 v -19.1284 l 10.75,0.4517 c 11.88145,0.4992 14.38513,1.4629 16.75029,6.4471 1.90889,4.0226 1.90336,7.6768 -0.0172,11.3908 -2.12252,4.1045 -6.31592,5.9673 -13.43341,5.9673 h -6.04966 v 7 7 h -4 -4 v -19.1285 z"
         id="path4530" />
      <path
         inkscape:connector-curvature="0"
         style="fill:#ffffff;stroke:#000000;stroke-opacity:1"
         d="M 937.49963,1987.6409 C 940.34956,1983.2914 936.87564,1980 929.4349,1980 H 926 v 5 5 h 4.97695 c 4.12599,0 5.24123,-0.4034 6.52268,-2.3591 z"
         id="path4528" />
    </g>
  </g>
  <g
     id="5PR">
    <path
       inkscape:connector-curvature="0"
       id="5PR_area"
       d="m 1223.2795,2129.4644 c 85.7448,-5.5533 183.1968,-16.7858 286.7205,-33.0479 56.9891,-8.9522 93.7387,-16.3448 147.25,-29.621 l 32.75,-8.1252 v -76.1918 -76.1917 l -16.25,-0.6612 c -24.2601,-0.9871 -156.0225,-5.3043 -232.25,-7.6097 -121.4545,-3.6732 -177.2978,-5.0326 -233.75,-5.6902 l -55.75,-0.6494 v 120.3209 120.3208 l 24.0295,-0.6749 c 13.2162,-0.3712 34.4787,-1.3516 47.25,-2.1787 z"
       style="fill:#ffffff;stroke:#000000;stroke-opacity:1" />
    <g
       style="stroke:#000000;stroke-opacity:1"
       id="5PR_txt">
      <path
         inkscape:connector-curvature="0"
         style="fill:#ffffff;stroke:#000000;stroke-opacity:1"
         d="m 1350.1934,2013.9766 c -3.7547,-2.2893 -6.7633,-7.9928 -4.8561,-9.2062 2.3629,-1.5034 5.9145,-0.72 7.8414,1.7296 3.6175,4.599 8.8213,2.2109 8.8213,-4.0484 0,-2.5066 -0.644,-3.8274 -2.4397,-5.0041 -2.2432,-1.4697 -2.726,-1.4627 -5.9924,0.087 -4.3162,2.0482 -8.9472,1.3017 -8.1766,-1.3181 0.2777,-0.9442 1.0016,-4.6417 1.6087,-8.2167 1.8404,-10.8378 0.8293,-10 12.0674,-10 H 1369 v 3.5 3.5 h -6.893 c -5.363,0 -7.0278,0.3511 -7.5,1.5818 -1.1376,2.9644 -0.6074,3.4182 3.993,3.4182 3.898,0 5.1188,0.5188 8,3.4 2.9337,2.9337 3.3995,4.0652 3.3963,8.25 -0.01,11.3551 -10.5916,17.9425 -19.8029,12.3266 z"
         id="grande4524" />
      <path
         inkscape:connector-curvature="0"
         style="fill:#ffffff;stroke:#000000;stroke-opacity:1"
         d="m 1375,1996 v -19 l 8.25,0.024 c 15.8317,0.046 20.75,2.8939 20.75,12.0161 0,4.0239 -0.5315,5.5233 -2.8959,8.1695 -2.7025,3.0246 -3.4039,3.2668 -10.5,3.6251 l -7.6041,0.384 v 6.8907 6.8907 h -4 -4 v -19 z"
         id="path4522" />
      <path
         inkscape:connector-curvature="0"
         style="fill:#ffffff;stroke:#000000;stroke-opacity:1"
         d="m 1394.0657,1992.9648 c 2.3155,-1.2392 2.5435,-5.2143 0.4011,-6.9923 -0.8432,-0.6999 -3.7682,-1.4872 -6.5,-1.7497 L 1383,1983.7455 v 5.1273 5.1272 h 4.5657 c 2.5112,0 5.4362,-0.4658 6.5,-1.0352 z"
         id="path4520" />
      <path
         inkscape:connector-curvature="0"
         style="fill:#ffffff;stroke:#000000;stroke-opacity:1"
         d="m 1410,1995.8767 v -19.1232 l 11.8702,0.4232 c 13.6871,0.488 16.3893,1.6199 18.1862,7.6173 1.541,5.1433 -0.7052,10.7344 -5.0456,12.5594 l -3.0641,1.2884 2.0749,1.8778 c 1.995,1.8054 8.9784,12.5867 8.9784,13.8612 0,0.3406 -1.9328,0.6192 -4.2952,0.6192 -4.215,0 -4.3925,-0.14 -9.5092,-7.5 -4.5183,-6.4993 -5.6131,-7.5 -8.2048,-7.5 H 1418 v 7.5 7.5 h -4 -4 z"
         id="path4518" />
      <path
         inkscape:connector-curvature="0"
         style="fill:#ffffff;stroke:#000000;stroke-opacity:1"
         d="m 1430.0657,1991.9648 c 1.0976,-0.5874 1.9343,-2.0861 1.9343,-3.4648 0,-3.1674 -2.6457,-4.5 -8.9343,-4.5 H 1418 v 4.5 4.5 h 5.0657 c 2.7862,0 5.9362,-0.4658 7,-1.0352 z"
         id="path4516" />
    </g>
  </g>
  <g
     id="5P">
    <path
       inkscape:connector-curvature="0"
       id="5P_area"
       d="m 1741.5,2043.3031 c 80.2604,-24.7721 163.9334,-58.6981 236,-95.6882 47.5675,-24.4153 66.0932,-35.5386 129.8341,-77.9558 l 52.8341,-35.1591 -0.5661,-15.5 c -1.2315,-33.7254 -11.0997,-105.4594 -29.1639,-212 -6.6244,-39.07 -17.254,-99.7517 -17.7633,-101.4061 -0.3476,-1.1289 17.8571,-25.9465 -207.1558,282.4061 -104.9529,143.825 -191.2513,262.052 -191.7744,262.7267 -1.0906,1.4069 0.6756,0.9345 27.7553,-7.4236 z"
       style="fill:#ffffff;stroke:#000000;stroke-opacity:1" />
    <g
       style="stroke:#000000;stroke-opacity:1"
       id="5P_txt">
      <path
         inkscape:connector-curvature="0"
         style="fill:#ffffff;stroke:#000000;stroke-opacity:1"
         d="m 1971.4487,1841.4485 c -3.4536,-1.7044 -6.9032,-6.8217 -6.0672,-9.0003 0.3295,-0.8587 1.8966,-1.4482 3.85,-1.4482 2.4571,0 3.5451,0.5718 4.2814,2.25 1.4865,3.3883 6.5472,3.1116 8.2549,-0.4514 2.9515,-6.1582 -1.7773,-11.3964 -7.5795,-8.396 -3.5599,1.8409 -6.7808,2.0658 -7.7242,0.5393 -0.3597,-0.582 0.1463,-5.307 1.1243,-10.5 l 1.7784,-9.4419 h 9.8166 9.8166 v 3.5 3.5 h -7 c -6.8,0 -7,0.071 -7,2.5 0,2.2536 0.3977,2.5 4.0352,2.5 5.0012,0 8.8168,2.4014 10.6012,6.6723 4.9904,11.9436 -6.7518,23.4202 -18.1877,17.7762 z"
         id="grande4512" />
      <path
         inkscape:connector-curvature="0"
         style="fill:#ffffff;stroke:#000000;stroke-opacity:1"
         d="m 1995.2279,1823.25 0.2721,-18.75 6,-0.3206 c 15.661,-0.8367 22.7132,2.5499 22.9001,10.9971 0.1923,8.6954 -4.5725,12.8235 -14.8012,12.8235 H 2004 v 7 7 h -4.5221 -4.522 z"
         id="path4510" />
      <path
         inkscape:connector-curvature="0"
         style="fill:#ffffff;stroke:#000000;stroke-opacity:1"
         d="m 2014.0657,1819.9648 c 2.0567,-1.1007 2.7322,-6.3536 0.9581,-7.4501 -0.5369,-0.3318 -3.2369,-0.871 -6,-1.1983 l -5.0238,-0.595 v 5.1393 5.1393 h 4.0657 c 2.2362,0 4.9362,-0.4658 6,-1.0352 z"
         id="path4508" />
    </g>
  </g>
  <g
     id="5R">
    <path
       inkscape:connector-curvature="0"
       id="5R_area"
       d="M 578.25319,2047.75 C 577.70775,2047.0625 487.61368,1925.675 378.04413,1778 268.47458,1630.325 178.50814,1509.3808 178.1187,1509.2351 c -0.81538,-0.305 -8.86199,40.4356 -16.05049,81.2649 -14.2288,80.8169 -28.54276,188.4996 -30.63971,230.5 l -0.62409,12.5 11.3478,7.437 c 104.59233,68.5464 232.39211,133.3274 352.34779,178.6031 20.11631,7.5926 82.3152,29.2912 84.37244,29.434 0.20485,0.014 -0.0738,-0.5366 -0.61925,-1.2241 z"
       style="fill:#ffffff;stroke:#000000;stroke-opacity:1" />
    <g
       style="stroke:#000000;stroke-opacity:1"
       id="5R_txt">
      <path
         inkscape:connector-curvature="0"
         style="fill:#ffffff;stroke:#000000;stroke-opacity:1"
         d="m 250.13704,1827.3046 c -3.88496,-2.0847 -6.72816,-6.3218 -5.8237,-8.6788 1.00836,-2.6277 6.16505,-2.0708 8.0947,0.8742 1.75527,2.6789 5.37626,3.3157 7.39196,1.3 0.66,-0.66 1.2,-2.8996 1.2,-4.9769 0,-2.9004 -0.56622,-4.148 -2.43973,-5.3756 -2.24313,-1.4697 -2.726,-1.4627 -5.99237,0.087 -2.03272,0.9646 -4.57423,1.4294 -5.94047,1.0865 -2.37503,-0.5961 -2.38104,-0.6328 -1.12081,-6.8603 0.69687,-3.4435 1.56335,-7.9485 1.92552,-10.011 l 0.65849,-3.75 H 258.04531 268 v 3.5 3.5 h -6.88342 c -6.54821,0 -6.9067,0.1217 -7.36133,2.5 -0.44962,2.352 -0.22432,2.5 3.8067,2.5 8.05692,0 13.67766,7.6827 11.51007,15.7325 -2.25796,8.3855 -11.49215,12.5659 -18.93498,8.5721 z"
         id="grande4504" />
      <path
         inkscape:connector-curvature="0"
         style="fill:#ffffff;stroke:#000000;stroke-opacity:1"
         d="m 274.22793,1809.25 0.27207,-18.75 12.39792,0.074 12.39793,0.074 2.85207,3.192 c 3.91654,4.3834 4.01079,10.7291 0.21572,14.5241 -1.45,1.45 -3.32844,2.6364 -4.17432,2.6364 -1.22805,0 -1.12205,0.4534 0.52609,2.25 2.15885,2.3534 9.28459,13.2531 9.28459,14.202 0,0.3014 -2.00823,0.548 -4.46274,0.548 -4.32611,0 -4.58527,-0.1804 -8.46496,-5.8935 -5.22711,-7.6973 -6.71946,-9.1065 -9.64373,-9.1065 -2.35555,0 -2.42857,0.2255 -2.42857,7.5 v 7.5 h -4.52207 -4.52206 l 0.27206,-18.75 z"
         id="grande4502" />
      <path
         inkscape:connector-curvature="0"
         style="fill:#ffffff;stroke:#000000;stroke-opacity:1"
         d="M 295.06574,1804.9648 C 296.1633,1804.3774 297,1802.8787 297,1801.5 c 0,-3.1674 -2.64572,-4.5 -8.93426,-4.5 H 283 v 4.5 4.5 h 5.06574 c 2.78616,0 5.93616,-0.4658 7,-1.0352 z"
         id="path4500" />
    </g>
  </g>
  <g
     id="4P">
    <path
       inkscape:connector-curvature="0"
       id="4P_area"
       d="m 1886.5687,1791.5 c 99.9647,-136.95 187.7458,-257.2125 195.069,-267.25 7.3231,-10.0375 13.213,-18.2425 13.0886,-18.2333 -0.1245,0.01 -87.7513,40.8508 -194.7263,90.7591 l -194.5,90.7424 -0.6187,63.4909 c -1.4889,152.7926 -1.9866,291.4585 -1.0425,290.4909 0.5367,-0.55 82.7651,-113.05 182.7299,-250 z"
       style="fill:#ffffff;stroke:#000000;stroke-opacity:1" />
    <g
       style="stroke:#000000;stroke-opacity:1"
       id="4P_txt">
      <path
         inkscape:connector-curvature="0"
         style="fill:#ffffff;stroke:#000000;stroke-opacity:1"
         d="m 1829,1749.5 v -3.5 h -7.5 -7.5 v -3.792 c 0,-3.0775 1.4603,-5.9509 7.75,-15.25 7.3695,-10.8954 7.9341,-11.4732 11.5,-11.7684 l 3.75,-0.3103 v 12.0603 c 0,11.3937 0.1106,12.0604 2,12.0604 1.619,0 2,0.6667 2,3.5 0,2.8333 -0.381,3.5 -2,3.5 -1.619,0 -2,0.6667 -2,3.5 0,3.4167 -0.095,3.5 -4,3.5 -3.9048,0 -4,-0.083 -4,-3.5 z"
         id="path4496" />
      <path
         inkscape:connector-curvature="0"
         style="fill:#ffffff;stroke:#000000;stroke-opacity:1"
         d="m 1829,1733.2633 v -5.7366 l -3.5,5.1972 c -1.925,2.8585 -3.5,5.44 -3.5,5.7366 0,0.2967 1.575,0.5395 3.5,0.5395 h 3.5 z"
         id="path4494" />
      <path
         inkscape:connector-curvature="0"
         style="fill:#ffffff;stroke:#000000;stroke-opacity:1"
         d="m 1845.2279,1734.25 0.2721,-18.75 6,-0.3206 c 15.661,-0.8367 22.7132,2.5499 22.9001,10.9971 0.1923,8.6954 -4.5725,12.8235 -14.8012,12.8235 H 1854 v 7 7 h -4.5221 -4.522 z"
         id="path4492" />
      <path
         inkscape:connector-curvature="0"
         style="fill:#ffffff;stroke:#000000;stroke-opacity:1"
         d="m 1864.0657,1730.9648 c 2.0567,-1.1007 2.7322,-6.3536 0.9581,-7.4501 -0.5369,-0.3318 -3.2369,-0.871 -6,-1.1983 l -5.0238,-0.595 v 5.1393 5.1393 h 4.0657 c 2.2362,0 4.9362,-0.4658 6,-1.0352 z"
         id="path4490" />
    </g>
  </g>
  <g
     id="4R">
    <path
       inkscape:connector-curvature="0"
       id="4R_area"
       d="m 588.9885,1863.25 -0.0115,-175.75 -28.73849,-12.955 c -15.80618,-7.1252 -104.0825,-47.0562 -196.16962,-88.7355 -92.08712,-41.6793 -167.55424,-75.6575 -167.70472,-75.507 C 196.05008,1510.6166 588.09266,2039 588.6398,2039 c 0.19812,0 0.35503,-79.0875 0.34871,-175.75 z"
       style="fill:#ffffff;stroke:#000000;stroke-opacity:1" />
    <g
       style="stroke:#000000;stroke-opacity:1"
       id="4R_txt">
      <path
         inkscape:connector-curvature="0"
         style="fill:#ffffff;stroke:#000000;stroke-opacity:1"
         d="m 416,1733 v -4 h -7.5 -7.5 v -3.2086 c 0,-2.3228 2.13954,-6.4586 7.75,-14.9809 7.59821,-11.5416 7.82345,-11.7726 11.5,-11.7914 L 424,1699 v 11.5 c 0,10.8333 0.11594,11.5 2,11.5 1.61905,0 2,0.6667 2,3.5 0,2.8333 -0.38095,3.5 -2,3.5 -1.66667,0 -2,0.6667 -2,4 v 4 h -4 -4 z"
         id="path4486" />
      <path
         inkscape:connector-curvature="0"
         style="fill:#ffffff;stroke:#000000;stroke-opacity:1"
         d="m 416,1716.8333 c 0,-2.8416 -0.15208,-4.9791 -0.33795,-4.75 -0.18587,0.2292 -1.78249,2.5542 -3.54804,5.1667 l -3.21009,4.75 H 412.45196 416 Z"
         id="path4484" />
      <path
         inkscape:connector-curvature="0"
         style="fill:#ffffff;stroke:#000000;stroke-opacity:1"
         d="m 433,1717.9184 v -19.0815 l 12.39821,0.3315 c 13.97694,0.3738 15.71665,1.1452 17.72882,7.8612 1.40455,4.688 -0.20997,8.4418 -5.02491,11.6831 -1.86884,1.258 -2.9159,2.2873 -2.3268,2.2873 1.19841,0 10.22468,13.1399 10.22468,14.8845 0,0.646 -1.78886,1.1147 -4.25,1.1137 -3.98134,0 -4.43963,-0.3019 -7.24981,-4.7497 C 449.76984,1724.7616 446.05668,1721 443.39641,1721 441.06756,1721 441,1721.2256 441,1729 v 8 h -4 -4 z"
         id="grande4482" />
      <path
         inkscape:connector-curvature="0"
         style="fill:#ffffff;stroke:#000000;stroke-opacity:1"
         d="m 454.83008,1710.6085 c 0.42744,-3.7445 -1.03257,-4.5744 -8.08008,-4.5932 L 441,1706 v 4.0457 4.0457 l 6.75,-0.2957 c 6.62087,-0.29 6.75631,-0.351 7.08008,-3.1872 z"
         id="path4480" />
    </g>
  </g>
  <g
     id="4RP">
    <path
       inkscape:connector-curvature="0"
       id="4RP_area"
       d="m 713,1893.4726 c 274.73367,-10.1334 399.6083,-14.4581 417.7568,-14.4681 h 8.2567 l -0.2567,-70.2363 -0.2568,-70.2363 -5.1653,-0.7433 c -13.8758,-1.9967 -31.0462,-11.1782 -40.3794,-21.5921 -5.7421,-6.4068 -12.2282,-19.0334 -13.8652,-26.9912 -2.4969,-12.1383 -0.7699,-25.1447 4.8699,-36.6762 1.6074,-3.2865 2.7715,-6.1265 2.5869,-6.311 -0.1846,-0.1846 -7.4706,-2.0756 -16.1913,-4.2023 -45.5015,-11.0962 -86.7489,-30.8329 -123.3556,-59.0253 -11.8145,-9.0989 -40.38292,-37.5614 -49.35262,-49.1697 l -6.70987,-8.6837 -11.21876,6.3128 c -6.17031,3.4721 -67.46875,37.947 -136.21875,76.611 -68.75,38.664 -128.4875,72.2702 -132.75,74.6804 l -7.75,4.3823 v 105.4463 105.4463 l 8.25,-0.5452 c 4.5375,-0.2999 50.325,-2.0972 101.75,-3.9939 z"
       style="fill:#ffffff;stroke:#000000;stroke-opacity:1" />
    <g
       style="stroke:#000000;stroke-opacity:1"
       id="4RP_txt">
      <path
         inkscape:connector-curvature="0"
         style="fill:#ffffff;stroke:#000000;stroke-opacity:1"
         d="m 854,1752 v -4 h -7.5 -7.5 v -3.2086 c 0,-2.3228 2.13954,-6.4586 7.75,-14.9809 7.59821,-11.5416 7.82345,-11.7726 11.5,-11.7914 L 862,1718 v 11.5 c 0,10.8333 0.11594,11.5 2,11.5 1.61905,0 2,0.6667 2,3.5 0,2.8333 -0.38095,3.5 -2,3.5 -1.66667,0 -2,0.6667 -2,4 v 4 h -4 -4 z"
         id="grande4476" />
      <path
         inkscape:connector-curvature="0"
         style="fill:#ffffff;stroke:#000000;stroke-opacity:1"
         d="m 853.9778,1735.75 -0.0222,-5.25 -1.87082,2.4339 c -1.02895,1.3387 -2.61938,3.7012 -3.5343,5.25 L 846.887,1741 h 3.55653 3.55654 l -0.0222,-5.25 z"
         id="path4474" />
      <path
         inkscape:connector-curvature="0"
         style="fill:#ffffff;stroke:#000000;stroke-opacity:1"
         d="m 870,1737 v -19 h 10.85078 c 12.10488,0 16.27647,1.0191 18.58324,4.5396 3.4375,5.2463 0.86657,14.2781 -4.55406,15.9985 -2.04375,0.6487 -2.03965,0.6873 0.3514,3.3091 2.55134,2.7976 8.76864,12.3628 8.76864,13.4903 0,0.3644 -2.01129,0.6625 -4.46953,0.6625 -4.44554,0 -4.49667,-0.04 -9.53047,-7.5 -2.78352,-4.125 -5.38473,-7.5061 -5.78047,-7.5137 -0.39574,-0.01 -1.73203,-0.2849 -2.96953,-0.6166 -2.19805,-0.589 -2.25,-0.4156 -2.25,7.5137 V 1756 h -4.5 -4.5 z"
         id="grande4472" />
      <path
         inkscape:connector-curvature="0"
         style="fill:#ffffff;stroke:#000000;stroke-opacity:1"
         d="m 890,1733.1093 c 1.55997,-0.4313 2.62287,-1.5426 2.82676,-2.9553 0.55095,-3.8174 -1.51055,-5.154 -7.9492,-5.154 H 879 v 4.5 4.5 l 4.25,-0.1 c 2.3375,-0.055 5.375,-0.4108 6.75,-0.791 z"
         id="path4470" />
      <path
         inkscape:connector-curvature="0"
         style="fill:#ffffff;stroke:#000000;stroke-opacity:1"
         d="m 908,1737 v -19 h 9.53212 C 931.77753,1718 937,1721.0239 937,1729.2722 937,1737.7648 931.85304,1742 921.53212,1742 H 916 v 7 7 h -4 -4 z"
         id="path4468" />
      <path
         inkscape:connector-curvature="0"
         style="fill:#ffffff;stroke:#000000;stroke-opacity:1"
         d="m 926.77749,1733.4433 c 4.8985,-3.431 1.03985,-8.4433 -6.5,-8.4433 H 916 v 5 5 h 4.27749 c 2.35263,0 5.27763,-0.7005 6.5,-1.5567 z"
         id="path4466" />
    </g>
  </g>
  <g
     id="4PR">
    <path
       inkscape:connector-curvature="0"
       id="4PR_area"
       d="m 1691.0013,1832.25 c 7e-4,-33.4125 0.2889,-79.2 0.6403,-101.75 l 0.639,-41 -39.8903,-22.3985 c -21.9397,-12.3191 -83.9903,-47.1259 -137.8903,-77.3484 -53.9,-30.2226 -99.8361,-56.0049 -102.0801,-57.2942 l -4.0801,-2.3441 -3.1871,4.1467 c -41.3109,53.7503 -110.9907,95.7417 -182.8659,110.2011 -7.0327,1.4148 -13.8022,2.7988 -15.0432,3.0755 l -2.2564,0.5032 2.5148,4.9626 c 10.7709,21.2554 5.8976,47.8496 -12.002,65.4961 -10.7755,10.6232 -23.734,17.255 -37.6208,19.2533 l -5.3792,0.7741 -0.2539,69.9863 -0.2538,69.9863 34.2538,0.2855 c 77.9494,0.6498 250.298,5.3446 428.2539,11.6655 35.2,1.2503 66.8125,2.3353 70.25,2.4111 L 1691,1893 v -60.75 z"
       style="fill:#ffffff;stroke:#000000;stroke-opacity:1" />
    <g
       style="stroke:#000000;stroke-opacity:1"
       id="4PR_txt">
      <path
         inkscape:connector-curvature="0"
         style="fill:#ffffff;stroke:#000000;stroke-opacity:1"
         d="m 1395,1758 v -4 h -7.5 -7.5 v -3.2086 c 0,-2.3228 2.1395,-6.4586 7.75,-14.9809 7.5982,-11.5416 7.8234,-11.7726 11.5,-11.7914 l 3.75,-0.019 v 11.5 c 0,10.8333 0.1159,11.5 2,11.5 1.619,0 2,0.6667 2,3.5 0,2.8333 -0.381,3.5 -2,3.5 -1.6667,0 -2,0.6667 -2,4 v 4 h -4 -4 v -4 z"
         id="path4462" />
      <path
         inkscape:connector-curvature="0"
         style="fill:#ffffff;stroke:#000000;stroke-opacity:1"
         d="m 1395,1741.8333 c 0,-2.8416 -0.1521,-4.9791 -0.3379,-4.75 -0.1859,0.2292 -1.7825,2.5542 -3.5481,5.1667 l -3.2101,4.75 h 3.5481 3.548 z"
         id="path4460" />
      <path
         inkscape:connector-curvature="0"
         style="fill:#ffffff;stroke:#000000;stroke-opacity:1"
         d="m 1412,1743 v -19 h 11.1 11.1 l 3.4,3.4 c 2.7862,2.7862 3.4,4.1575 3.4,7.5957 0,4.9605 -2.3519,9.388 -5.8283,10.9719 -1.3738,0.626 -5.3494,1.4044 -8.8347,1.7299 l -6.337,0.5917 v 6.8554 6.8554 h -4 -4 z"
         id="path4458" />
      <path
         inkscape:connector-curvature="0"
         style="fill:#ffffff;stroke:#000000;stroke-opacity:1"
         d="m 1431.6059,1738.9121 c 0.7667,-0.6363 1.3941,-1.9697 1.3941,-2.9631 0,-3.2158 -2.8267,-4.949 -8.0714,-4.949 H 1420 v 5.1393 5.1393 l 5.1059,-0.6047 c 2.8082,-0.3326 5.7332,-1.1254 6.5,-1.7618 z"
         id="path4456" />
      <path
         inkscape:connector-curvature="0"
         style="fill:#ffffff;stroke:#000000;stroke-opacity:1"
         d="m 1446.7143,1761.3809 c -0.3929,-0.3928 -0.7143,-9 -0.7143,-19.127 v -18.4128 l 13.089,0.3294 c 12.9262,0.3254 13.1189,0.3644 15.5,3.1353 4.5326,5.2747 2.3745,15.3015 -3.709,17.2323 -2.035,0.6459 -2.0283,0.6985 0.42,3.3091 2.4845,2.6491 8.7,12.3035 8.7,13.5134 0,0.3517 -1.9721,0.6394 -4.3825,0.6394 -4.2962,0 -4.4667,-0.1291 -8.6481,-6.547 -4.4721,-6.8641 -7.2519,-9.453 -10.1498,-9.453 -1.4729,0 -1.7797,1.1727 -2.0275,7.75 l -0.2921,7.75 -3.5357,0.2976 c -1.9447,0.1637 -3.8572,-0.024 -4.25,-0.4167 z"
         id="grande4454" />
      <path
         inkscape:connector-curvature="0"
         style="fill:#ffffff;stroke:#000000;stroke-opacity:1"
         d="m 1468.3909,1736.75 c 2.08,-3.3125 -0.4064,-5.2165 -7.2449,-5.5477 l -6.146,-0.2977 v 4.0954 4.0954 l 6.146,-0.2977 c 4.5436,-0.2201 6.4325,-0.754 7.2449,-2.0477 z"
         id="path4452" />
    </g>
  </g>
  <g
     id="4EQ">
    <path
       inkscape:connector-curvature="0"
       id="4EQ_area"
       d="m 1161.7569,1723.3876 c 26.7176,-6.9414 43.0716,-32.3085 36.7008,-56.9275 -4.2166,-16.2939 -19.2896,-30.1827 -37.9178,-34.9385 -7.6786,-1.9603 -22.4765,-1.9496 -30.0453,0.022 -25.8967,6.7453 -42.7531,29.8052 -38.7728,53.0423 4.2476,24.7973 29.8621,42.8423 57.7782,40.7039 3.85,-0.2949 9.3656,-1.1508 12.2569,-1.902 z"
       style="fill:#ffffff;stroke:#000000;stroke-opacity:1" />
    <g
       style="stroke:#000000;stroke-opacity:1"
       id="4EQ_txt">
      <path
         inkscape:connector-curvature="0"
         style="fill:#ffffff;stroke:#000000;stroke-opacity:1"
         d="m 1186.6007,1698.163 c -0.2845,-0.4604 -4.0236,-0.6424 -8.309,-0.4045 -6.9534,0.3861 -8.1657,0.1777 -11.2679,-1.9367 -7.1771,-4.8919 -10.1051,-13.0348 -8.0248,-22.3175 1.4213,-6.3421 4.3928,-10.3239 9.4021,-12.5989 7.6689,-3.4828 17.6821,-1.429 22.4241,4.5995 4.4827,5.6989 5.2739,16.5352 1.7104,23.4263 -1.2619,2.4402 -1.3335,3.4195 -0.3637,4.9725 0.9551,1.5292 0.9332,2.2648 -0.1045,3.5151 -1.4023,1.6897 -4.6123,2.1267 -5.4667,0.7442 z"
         id="path4448" />
      <path
         inkscape:connector-curvature="0"
         style="fill:#ffffff;stroke:#000000;stroke-opacity:1"
         d="m 1176.75,1690.3107 c -1.8747,-0.4899 -2.1017,-1.2305 -1.143,-3.7289 0.7675,-2.0001 3.3161,-2.0244 6.1228,-0.058 2.0161,1.4121 2.2656,1.3573 3.417,-0.75 1.6157,-2.957 1.5962,-11.6249 -0.033,-14.608 -1.9525,-3.5752 -7.488,-5.527 -11.7171,-4.1313 -4.424,1.4601 -6.3969,5.3131 -6.3969,12.4933 0,4.8855 0.385,6.0115 2.9231,8.5496 1.959,1.959 3.8554,2.8848 5.75,2.8071 1.69,-0.069 2.1231,-0.2999 1.0769,-0.5733 z"
         id="path4446" />
      <path
         inkscape:connector-curvature="0"
         style="fill:#ffffff;stroke:#000000;stroke-opacity:1"
         d="M 1109,1694.0604 V 1690 h -7.5 -7.5 v -3.5564 c 0,-2.7817 1.684,-6.0489 7.7314,-15 7.5664,-11.1994 7.8118,-11.4436 11.5,-11.4436 H 1117 v 11.5 c 0,10.8333 0.1159,11.5 2,11.5 1.619,0 2,0.6667 2,3.5 0,2.797 -0.3896,3.5 -1.9396,3.5 -1.5195,0 -2.0069,0.8122 -2.25,3.75 -0.2935,3.5464 -0.514,3.7669 -4.0604,4.0604 l -3.75,0.3103 z"
         id="path4444" />
      <path
         inkscape:connector-curvature="0"
         style="fill:#ffffff;stroke:#000000;stroke-opacity:1"
         d="m 1108.978,1677.75 -0.022,-5.25 -1.8708,2.4339 c -1.0289,1.3387 -2.6194,3.7012 -3.5343,5.25 l -1.6635,2.8161 h 3.5566 3.5565 l -0.022,-5.25 z"
         id="path4442" />
      <path
         inkscape:connector-curvature="0"
         style="fill:#ffffff;stroke:#000000;stroke-opacity:1"
         d="m 1125.6669,1697.3333 c -0.3667,-0.3666 -0.6667,-8.9166 -0.6667,-19 V 1660 h 14.5 14.5 v 3.5 3.5 h -10 -10 v 3.5 3.5 h 9 9 v 3.5 3.5 h -9 -9 v 5 5 h 10 10 v 3.5 3.5 h -13.8333 c -7.6084,0 -14.1334,-0.3 -14.5,-0.6667 z"
         id="path4440" />
    </g>
  </g>
  <g
     id="4PA">
    <path
       inkscape:connector-curvature="0"
       id="4PA_area"
       d="m 1902.7016,1580.9964 205.7986,-96.0037 -0.3182,-3.7463 c -0.1751,-2.0605 -2.7363,-15.965 -5.6915,-30.8988 -9.3484,-47.2396 -22.784,-98.6646 -38.7132,-148.1753 -6.5375,-20.3199 -7.3676,-22.2866 -9.2303,-21.8704 -1.6938,0.3785 -566.6261,267.532 -574.9009,271.8677 -2.5756,1.3495 -1.1818,2.2026 56.1064,34.3431 32.3113,18.1277 81.6977,45.8884 109.7477,61.6906 28.05,15.8022 51.0906,28.746 51.2014,28.764 0.1108,0.018 92.8108,-43.1689 206,-95.9709 z"
       style="fill:#ffffff;stroke:#000000;stroke-opacity:1" />
    <g
       style="stroke:#000000;stroke-opacity:1"
       id="4PA_txt">
      <path
         inkscape:connector-curvature="0"
         style="fill:#ffffff;stroke:#000000;stroke-opacity:1"
         d="m 1771,1493 v -4 h -7.5 -7.5 v -3.0295 c 0,-2.1257 2.3925,-6.6005 8.0197,-15 7.6809,-11.4647 8.1668,-11.9705 11.5,-11.9705 H 1779 v 11.4304 c 0,11.0925 0.066,11.4399 2.25,11.75 1.7245,0.245 2.3232,1.0787 2.5634,3.5696 0.2799,2.9029 0.04,3.25 -2.25,3.25 -2.324,0 -2.5634,0.3736 -2.5634,4 v 4 h -4 -4 z"
         id="path4436" />
      <path
         inkscape:connector-curvature="0"
         style="fill:#ffffff;stroke:#000000;stroke-opacity:1"
         d="m 1771,1477.5 c 0,-2.475 -0.1652,-4.5 -0.3671,-4.5 -0.4655,0 -5.6329,7.778 -5.6329,8.4786 0,0.2868 1.35,0.5214 3,0.5214 2.8889,0 3,-0.1667 3,-4.5 z"
         id="path4434" />
      <path
         inkscape:connector-curvature="0"
         style="fill:#ffffff;stroke:#000000;stroke-opacity:1"
         d="m 1788,1477.9139 v -19.086 l 11.5843,0.336 11.5843,0.3361 2.9157,3.2658 c 2.3555,2.6383 2.9157,4.1806 2.9157,8.0275 0,8.312 -4.9352,12.2067 -15.4679,12.2067 H 1796 v 7 7 h -4 -4 z"
         id="path4432" />
      <path
         inkscape:connector-curvature="0"
         style="fill:#ffffff;stroke:#000000;stroke-opacity:1"
         d="m 1808.0767,1473.9101 c 2.787,-4.4026 -0.3826,-7.9101 -7.1481,-7.9101 H 1796 v 5.1238 5.1239 l 5.592,-0.4638 c 3.2854,-0.2724 5.9603,-1.0454 6.4847,-1.8738 z"
         id="path4430" />
      <path
         inkscape:connector-curvature="0"
         style="fill:#ffffff;stroke:#000000;stroke-opacity:1"
         d="m 1815.1667,1496.1805 c 0.1833,-0.4507 3.4833,-9.0165 7.3333,-19.035 l 7,-18.2156 4.3527,0.2851 4.3527,0.285 7.3973,18.4736 c 4.0685,10.1605 7.3973,18.598 7.3973,18.75 0,0.152 -1.9639,0.2764 -4.3641,0.2764 -4.2511,0 -4.4087,-0.1166 -6.0827,-4.5 l -1.7186,-4.5 H 1834 h -6.8346 l -1.7186,4.5 c -1.6808,4.4012 -1.8162,4.5 -6.166,4.5 -2.4461,0 -4.2975,-0.3688 -4.1141,-0.8195 z"
         id="path4428" />
      <path
         inkscape:connector-curvature="0"
         style="fill:#ffffff;stroke:#000000;stroke-opacity:1"
         d="m 1837.4483,1478.8371 c -0.3776,-1.1896 -1.3682,-3.7771 -2.2014,-5.75 l -1.5149,-3.5871 -1.2231,3.5 c -2.9749,8.5124 -3.0704,8 1.4911,8 3.7835,0 4.0765,-0.1838 3.4483,-2.1629 z"
         id="path4426" />
    </g>
  </g>
  <g
     id="4RA">
    <path
       inkscape:connector-curvature="0"
       id="4RA_area"
       d="m 681.69286,1627.6576 c 47.19393,-26.5883 96.25075,-54.1508 109.01516,-61.25 12.76441,-7.0992 23.2213,-13.1326 23.23754,-13.4076 0.0244,-0.4125 -570.59415,-270.7767 -575.30177,-272.5832 -1.6308,-0.6258 -4.70693,8.4162 -17.03845,50.0832 -18.01988,60.8873 -41.48151,156.1697 -39.0069,158.4148 0.49586,0.4499 49.27656,22.6959 108.40156,49.4355 59.125,26.7397 151.6,68.6158 205.5,93.0581 53.9,24.4422 98.31179,44.4744 98.69286,44.516 0.38107,0.042 39.30607,-21.6785 86.5,-48.2668 z"
       style="fill:#ffffff;stroke:#000000;stroke-opacity:1" />
    <g
       style="stroke:#000000;stroke-opacity:1"
       id="4RA_txt">
      <path
         inkscape:connector-curvature="0"
         style="fill:#ffffff;stroke:#000000;stroke-opacity:1"
         d="m 399,1493.5438 v -3.4562 l -7.25,-0.2938 c -7.14556,-0.2896 -7.25469,-0.3348 -7.57579,-3.1409 -0.25117,-2.1949 1.55593,-5.6877 7.89008,-15.25 C 399.86715,1459.6235 400.44905,1459 403.64008,1459 H 407 v 12 12 h 2.56336 c 2.2896,0 2.52989,0.3471 2.25,3.25 -0.24017,2.4909 -0.83886,3.3246 -2.56336,3.5696 -1.83397,0.2604 -2.25,0.9538 -2.25,3.75 0,3.3355 -0.11069,3.4304 -4,3.4304 -3.8951,0 -4,-0.091 -4,-3.4562 z"
         id="grande4422" />
      <path
         inkscape:connector-curvature="0"
         style="fill:#ffffff;stroke:#000000;stroke-opacity:1"
         d="m 398.9778,1477.75 -0.0222,-5.25 -1.87082,2.4339 c -1.02895,1.3387 -2.61938,3.7012 -3.5343,5.25 L 391.887,1483 h 3.55653 3.55654 l -0.0222,-5.25 z"
         id="path4420" />
      <path
         inkscape:connector-curvature="0"
         style="fill:#ffffff;stroke:#000000;stroke-opacity:1"
         d="m 416.00004,1477.8767 v -19.1232 l 11.87023,0.4232 c 13.1676,0.4695 15.92237,1.4942 18.09078,6.7292 2.42476,5.8539 -1.54094,14.0941 -6.78296,14.0941 -1.13112,0 -0.81904,0.7653 1.15032,2.8209 1.4864,1.5514 4.20689,5.2067 6.04554,8.1228 l 3.343,5.302 5.78286,-14.8729 c 3.18058,-8.18 6.44313,-16.5603 7.25013,-18.6228 1.36808,-3.4965 1.7472,-3.7493 5.60868,-3.74 l 4.14142,0.01 7.25,18.2523 c 3.9875,10.0387 7.25,18.5842 7.25,18.9899 0,0.4058 -1.95377,0.7378 -4.34171,0.7378 -4.19893,0 -4.38113,-0.1315 -5.54014,-4 l -1.19843,-4 h -7.41972 -7.41972 l -1.19843,4 -1.19843,4 h -9.15907 -9.15908 l -4.93264,-7.25 c -4.22503,-6.21 -5.39885,-7.295 -8.18263,-7.5634 l -3.25,-0.3133 v 7.5633 7.5634 h -4 -4 z"
         id="grande4418" />
      <path
         inkscape:connector-curvature="0"
         style="fill:#ffffff;stroke:#000000;stroke-opacity:1"
         d="m 470.85041,1476.25 c -1.16686,-3.1625 -2.23493,-5.8869 -2.3735,-6.0542 -0.13856,-0.1673 -0.92994,1.6327 -1.75863,4 -0.82868,2.3673 -1.82743,5.0917 -2.21945,6.0542 -0.61751,1.5161 -0.0989,1.75 3.88019,1.75 h 4.59295 z"
         id="path4416" />
      <path
         inkscape:connector-curvature="0"
         style="fill:#ffffff;stroke:#000000;stroke-opacity:1"
         d="M 437.42861,1473.4286 C 441.24233,1469.6148 437.2759,1466 429.27753,1466 h -5.27749 v 4.5 4.5 h 5.92857 c 4.05628,0 6.42484,-0.4963 7.5,-1.5714 z"
         id="path4414" />
    </g>
  </g>
  <g
     id="3PR">
    <path
       inkscape:connector-curvature="0"
       id="3PR_area"
       d="m 1212,1632.9777 c 51.1274,-9.2017 99.9092,-31.2446 138.9975,-62.8085 15.3513,-12.3962 45.0025,-42.8838 45.0025,-46.272 0,-0.3925 -2.8125,-2.2662 -6.25,-4.1639 -3.4375,-1.8976 -48.2991,-26.9612 -99.6924,-55.6969 -51.3933,-28.7358 -94.0465,-52.4787 -94.7849,-52.762 -0.7384,-0.2834 -4.005,1.3524 -7.2591,3.635 -8.6244,6.0497 -17.9206,10.083 -27.5393,11.9484 l -8.4677,1.6422 v 94 94 l 8.7014,1.688 c 9.7886,1.8988 21.8239,7.4282 29.792,13.6872 3.5204,2.7653 5.7398,3.8158 7.5,3.5499 1.375,-0.2077 7.675,-1.309 14,-2.4474 z"
       style="fill:#ffffff;stroke:#000000;stroke-opacity:1" />
    <g
       style="stroke:#000000;stroke-opacity:1"
       id="3PR_txt">
      <path
         inkscape:connector-curvature="0"
         style="fill:#ffffff;stroke:#000000;stroke-opacity:1"
         d="m 1196.4487,1551.4485 c -3.162,-1.5605 -6.4487,-6.0725 -6.4487,-8.8528 0,-1.1782 0.9845,-1.5957 3.7629,-1.5957 2.9431,0 3.9779,0.4902 4.75,2.25 1.407,3.207 5.4927,2.9942 7.3893,-0.3848 1.3317,-2.3726 1.3018,-2.9049 -0.3001,-5.3497 -1.3345,-2.0367 -2.3813,-2.5997 -4.1905,-2.2539 -2.0855,0.3987 -2.4116,0.082 -2.4116,-2.3457 0,-2.0757 0.7162,-3.1501 2.75,-4.1248 2.0919,-1.0026 2.75,-2.0327 2.75,-4.3046 0,-2.5189 -0.3914,-2.9865 -2.5,-2.9865 -1.6514,0 -2.8394,0.7801 -3.5,2.2982 -0.7144,1.6418 -1.5712,2.1455 -3,1.7637 -1.1,-0.294 -2.5625,-0.5407 -3.25,-0.5482 -2.2199,-0.024 -1.3296,-3.8931 1.668,-7.2479 2.5816,-2.8894 3.5131,-3.2658 8.082,-3.2658 4.5689,0 5.5004,0.3764 8.082,3.2658 3.4811,3.8959 3.7707,7.8805 0.8433,11.6021 -1.8368,2.335 -1.8899,2.7085 -0.463,3.256 2.0215,0.7757 4.5389,5.5376 4.534,8.5764 -0.01,3.3489 -3.4513,8.4665 -6.9024,10.2512 -3.7525,1.9404 -7.7095,1.9394 -11.6452,0 z"
         id="grande4410" />
      <path
         inkscape:connector-curvature="0"
         style="fill:#ffffff;stroke:#000000;stroke-opacity:1"
         d="m 1220.2279,1533.25 0.2721,-18.75 6,-0.3206 c 15.661,-0.8367 22.7132,2.5499 22.9001,10.9971 0.1923,8.6954 -4.5725,12.8235 -14.8012,12.8235 H 1229 v 7 7 h -4.5221 -4.522 z"
         id="path4408" />
      <path
         inkscape:connector-curvature="0"
         style="fill:#ffffff;stroke:#000000;stroke-opacity:1"
         d="m 1239.0657,1529.9648 c 2.0567,-1.1007 2.7322,-6.3536 0.9581,-7.4501 -0.5369,-0.3318 -3.2369,-0.871 -6,-1.1983 l -5.0238,-0.595 v 5.1393 5.1393 h 4.0657 c 2.2362,0 4.9362,-0.4658 6,-1.0352 z"
         id="path4406" />
      <path
         inkscape:connector-curvature="0"
         style="fill:#ffffff;stroke:#000000;stroke-opacity:1"
         d="m 1255,1532.8767 v -19.1232 l 11.8702,0.4232 c 13.1676,0.4695 15.9224,1.4942 18.0908,6.7292 2.4269,5.8591 -1.5416,14.0941 -6.792,14.0941 -1.1167,0 -0.7024,0.9256 1.4547,3.25 1.6589,1.7875 3.6984,4.375 4.5324,5.75 0.834,1.375 2.3168,3.7375 3.2951,5.25 l 1.7788,2.75 h -4.9324 -4.9323 l -4.9327,-7.25 c -4.225,-6.21 -5.3988,-7.295 -8.1826,-7.5634 l -3.25,-0.3133 v 7.5633 7.5634 h -4 -4 z"
         id="path4404" />
      <path
         inkscape:connector-curvature="0"
         style="fill:#ffffff;stroke:#000000;stroke-opacity:1"
         d="m 1276.4286,1528.4286 c 3.8137,-3.8138 -0.1527,-7.4286 -8.1511,-7.4286 H 1263 v 4.5 4.5 h 5.9286 c 4.0562,0 6.4248,-0.4963 7.5,-1.5714 z"
         id="path4402" />
    </g>
  </g>
  <g
     id="3RP">
    <path
       inkscape:connector-curvature="0"
       id="3RP_area"
       d="m 1102.7413,1630.3403 c 6.9148,-5.3178 18.5513,-10.4032 28.0054,-12.239 l 8.2467,-1.6013 v -94 -94 l -8.2467,-1.6013 c -9.641,-1.8721 -21.0323,-6.9174 -28.6306,-12.6809 l -5.3839,-4.0838 -5.1161,2.8679 c -2.8139,1.5773 -46.27,25.8635 -96.56914,53.9694 -50.29917,28.1058 -91.65076,51.2992 -91.89242,51.5408 -0.87913,0.8792 15.63244,20.2208 26.85734,31.4607 40.12396,40.1775 93.33922,68.5568 152.91842,81.5503 5.8133,1.2678 11.5783,2.3437 12.811,2.391 1.2328,0.047 4.3828,-1.5609 7,-3.5738 z"
       style="fill:#ffffff;stroke:#000000;stroke-opacity:1" />
    <g
       style="stroke:#000000;stroke-opacity:1"
       id="3RP_txt">
      <path
         inkscape:connector-curvature="0"
         style="fill:#ffffff;stroke:#000000;stroke-opacity:1"
         d="m 1008.4,1543.6 c -4.3645,-4.3645 -4.4679,-7.1364 -0.2973,-7.9705 3.5007,-0.7002 4.8973,-0.16 4.8973,1.8943 0,0.7732 0.9,1.8875 2,2.4762 2.9986,1.6048 6,-0.3729 6,-3.9534 0,-4.6255 -0.9653,-6.0466 -4.107,-6.0466 -2.5359,0 -2.893,-0.3636 -2.893,-2.9454 0,-2.2239 0.6707,-3.2669 2.7378,-4.2576 3.2964,-1.58 4.1323,-4.6876 1.7328,-6.4422 -2.0574,-1.5043 -5.4706,-0.144 -5.4706,2.1804 0,1.4975 -3.4805,1.9851 -6.3394,0.888 -1.2035,-0.4618 -1.2996,-1.1604 -0.4819,-3.506 3.0535,-8.7593 16.4473,-9.5569 20.7043,-1.2329 1.6554,3.2369 1.3683,5.7265 -1.0088,8.7485 -2.1146,2.6883 -2.1153,2.71 -0.1379,4.0951 5.368,3.7599 4.9377,12.0443 -0.8798,16.9394 -2.3468,1.9747 -4.1167,2.5327 -8.0332,2.5327 -4.3794,0 -5.4591,-0.4358 -8.4233,-3.4 z"
         id="grande4398" />
      <path
         inkscape:connector-curvature="0"
         style="fill:#ffffff;stroke:#000000;stroke-opacity:1"
         d="m 1035,1528 v -19 h 11.4529 c 6.7497,0 12.5298,0.4906 14.075,1.1947 3.1642,1.4417 5.4721,5.584 5.4721,9.8214 0,4.2135 -1.4655,6.6562 -5.1307,8.5515 l -3.0715,1.5883 1.9908,2.1721 c 2.1052,2.2967 9.2114,13.1929 9.2114,14.124 0,0.3014 -2.0113,0.548 -4.4695,0.548 -4.4386,0 -4.504,-0.051 -9.4437,-7.3714 -4.9384,-7.3183 -6.4825,-8.6286 -10.1686,-8.6286 -1.7311,0 -1.9182,0.7804 -1.9182,8 v 8 h -4 -4 z"
         id="path4396" />
      <path
         inkscape:connector-curvature="0"
         style="fill:#ffffff;stroke:#000000;stroke-opacity:1"
         d="m 1057.3905,1521.75 c 2.1396,-3.4061 -0.3916,-5.2185 -7.7449,-5.5457 L 1043,1515.9086 v 4.0914 4.0914 l 6.6456,-0.2957 c 5.0238,-0.2235 6.9139,-0.7228 7.7449,-2.0457 z"
         id="path4394" />
      <path
         inkscape:connector-curvature="0"
         style="fill:#ffffff;stroke:#000000;stroke-opacity:1"
         d="m 1073,1527.9139 v -19.086 l 11.4799,0.336 c 11.0071,0.3223 11.594,0.4503 14.25,3.1088 2.3493,2.3516 2.7701,3.6013 2.7701,8.2273 0,4.5368 -0.4362,5.8908 -2.5925,8.0471 -2.751,2.7509 -7.9897,4.3898 -14.1575,4.429 l -3.75,0.024 v 7 7 h -4 -4 v -19.0861 z"
         id="path4392" />
      <path
         inkscape:connector-curvature="0"
         style="fill:#ffffff;stroke:#000000;stroke-opacity:1"
         d="m 1088.9105,1525.3679 c 4.2403,-0.8481 5.7455,-3.7177 3.6375,-6.935 -1.3352,-2.0378 -2.4024,-2.4329 -6.5711,-2.4329 H 1081 v 5 c 0,5.4958 0.6039,5.8292 7.9105,4.3679 z"
         id="path4390" />
    </g>
  </g>
  <g
     id="2RA">
    <path
       inkscape:connector-curvature="0"
       id="2RA_area"
       d="m 855.57229,1529.9224 c 14.80397,-8.2927 27.12685,-15.2882 27.38416,-15.5455 0.25731,-0.2573 -0.17236,-1.4599 -0.95483,-2.6724 -17.56386,-27.2163 -30.52931,-60.0177 -36.51163,-92.371 -10.11432,-54.6999 -2.06221,-109.2385 23.66772,-160.3067 4.28777,-8.5102 7.46886,-15.748 7.06911,-16.084 C 875.82707,1242.6068 766.375,1187.0726 633,1119.5335 499.625,1051.9943 381.83354,992.25842 371.24121,986.78705 l -19.2588,-9.94794 -4.0669,8.83045 c -25.05657,54.40524 -68.30462,166.84674 -96.96127,252.09154 l -9.83668,29.2612 3.19122,1.3886 c 1.75517,0.7637 133.91622,63.2978 293.69122,138.9647 159.775,75.6669 290.53509,137.587 290.57798,137.6003 0.0429,0.013 12.19033,-6.7608 26.99431,-15.0535 z"
       style="fill:#ffffff;stroke:#000000;stroke-opacity:1" />
    <g
       style="stroke:#000000;stroke-opacity:1"
       id="2RA_txt">
      <path
         inkscape:connector-curvature="0"
         style="fill:#ffffff;stroke:#000000;stroke-opacity:1"
         d="m 523,1297.49 c 0,-3.1568 3.9909,-9.1333 10.00974,-14.99 3.39136,-3.3 6.57661,-7.042 7.07833,-8.3155 1.03847,-2.6359 -0.1556,-5.6127 -2.63273,-6.5633 -2.03352,-0.7803 -5.45534,1.0104 -5.45534,2.855 0,2.0794 -1.67785,2.7535 -5.0244,2.0184 -3.23706,-0.7109 -3.61646,-1.994 -1.78091,-6.0225 2.65559,-5.8284 14.14433,-7.5821 19.59967,-2.9917 6.29238,5.2947 4.88709,12.8405 -4.0011,21.484 l -6.10523,5.9371 6.90598,0.2993 6.90599,0.2992 v 3.5 3.5 l -12.75,0.2799 c -11.0372,0.2423 -12.75,0.069 -12.75,-1.2899 z"
         id="grande4386" />
      <path
         inkscape:connector-curvature="0"
         style="fill:#ffffff;stroke:#000000;stroke-opacity:1"
         d="m 554.71426,1298.3809 c -0.39284,-0.3928 -0.71426,-9 -0.71426,-19.127 v -18.4128 l 13.08898,0.3294 c 12.92624,0.3254 13.11896,0.3644 15.5,3.1353 4.50935,5.2476 2.37784,15.3004 -3.64981,17.2135 -1.91466,0.6077 -1.87242,0.7927 0.90263,3.9533 1.60121,1.8237 3.94971,5.1634 5.21889,7.4216 1.26918,2.2582 2.56223,4.0963 2.87345,4.0847 0.31122,-0.012 3.66901,-8.1336 7.46176,-18.0489 l 6.89589,-18.0277 4.39495,0.2989 4.39495,0.2988 6.95606,17.5 c 3.82583,9.625 6.95745,18.0625 6.95915,18.75 0.002,0.7878 -1.44537,1.25 -3.91419,1.25 -3.72145,0 -4.00321,-0.225 -5.63586,-4.5 l -1.71857,-4.5 h -6.89968 -6.89967 l -1.92893,4.5 -1.92893,4.5 h -8.41807 -8.41808 l -4.26556,-6.547 c -4.47209,-6.8641 -7.25188,-9.453 -10.1498,-9.453 -1.47283,0 -1.77963,1.1727 -2.0275,7.75 l -0.29206,7.75 -3.53574,0.2976 c -1.94466,0.1637 -3.85716,-0.024 -4.25,-0.4167 z"
         id="grande4384" />
      <path
         inkscape:connector-curvature="0"
         style="fill:#ffffff;stroke:#000000;stroke-opacity:1"
         d="m 610.50121,1281.25 c -0.39202,-0.9625 -1.41795,-3.7666 -2.27984,-6.2314 -0.8917,-2.55 -1.76556,-3.843 -2.02759,-3 -0.25328,0.8148 -1.25726,3.6189 -2.23107,6.2314 l -1.77056,4.75 h 4.51091 c 3.90097,0 4.41454,-0.2366 3.79815,-1.75 z"
         id="grande4382" />
      <path
         inkscape:connector-curvature="0"
         style="fill:#ffffff;stroke:#000000;stroke-opacity:1"
         d="m 576.39091,1273.75 c 2.07999,-3.3125 -0.40643,-5.2165 -7.24489,-5.5477 L 563,1267.9046 v 4.0954 4.0954 l 6.14602,-0.2977 c 4.54361,-0.2201 6.43253,-0.754 7.24489,-2.0477 z"
         id="path4380" />
    </g>
  </g>
  <g
     id="2PA">
    <path
       inkscape:connector-curvature="0"
       id="2PA_area"
       d="m 1757.6315,1405.9242 c 161.6194,-76.4917 293.9865,-139.2089 294.1491,-139.3715 0.4328,-0.4327 -11.6823,-34.6644 -21.2534,-60.0527 -13.3995,-35.5433 -25.2513,-64.407 -51.7372,-126 -29.4761,-68.5469 -42.9004,-98.5 -44.1454,-98.5 -0.8976,0 -439.3919,220.6652 -486.6847,244.9162 l -24.5401,12.5838 3.8893,6.5 c 10.5651,17.6569 21.1023,43.524 26.6819,65.5 6.0897,23.9852 7.4614,35.468 7.4659,62.5 0.01,32.4869 -3.0405,51.3203 -13.181,81.5 -5.2466,15.6145 -18.1535,42.5074 -26.6348,55.4965 -5.4863,8.4023 -5.5234,8.5094 -3.3445,9.6589 1.2119,0.6394 11.4284,6.3708 22.7034,12.7366 11.275,6.3657 21.0125,11.5817 21.639,11.591 0.6264,0.01 133.373,-62.5671 294.9925,-139.0588 z"
       style="fill:#ffffff;stroke:#000000;stroke-opacity:1" />
    <g
       style="stroke:#000000;stroke-opacity:1"
       id="2PA_txt">
      <path
         inkscape:connector-curvature="0"
         style="fill:#ffffff;stroke:#000000;stroke-opacity:1"
         d="m 1653,1299.9503 c 0,-2.5562 3.756,-7.9806 10.0609,-14.53 7.1323,-7.4088 9.0728,-11.3493 6.8864,-13.9838 -1.8156,-2.1877 -6.2414,-1.4057 -7.4344,1.3135 -0.7721,1.7598 -1.8069,2.25 -4.75,2.25 -4.2795,0 -4.7241,-1.2405 -2.1965,-6.1284 4.0546,-7.8407 18.238,-7.5437 22.0556,0.4619 2.7512,5.7694 1.2617,9.9456 -6.3649,17.8454 l -6.5852,6.8211 h 7.164 7.1641 v 3.5 3.5 h -13 c -8.41,0 -13,-0.3706 -13,-1.0497 z"
         id="grande4376" />
      <path
         inkscape:connector-curvature="0"
         style="fill:#ffffff;stroke:#000000;stroke-opacity:1"
         d="m 1684.2279,1282.25 0.2721,-18.75 6,-0.3206 c 15.661,-0.8367 22.7132,2.5499 22.9001,10.9971 0.1923,8.6954 -4.5725,12.8235 -14.8012,12.8235 H 1693 v 7 7 h -4.5221 -4.522 z"
         id="path4374" />
      <path
         inkscape:connector-curvature="0"
         style="fill:#ffffff;stroke:#000000;stroke-opacity:1"
         d="m 1703.0657,1278.9648 c 2.0567,-1.1007 2.7322,-6.3536 0.9581,-7.4501 -0.5369,-0.3318 -3.2369,-0.871 -6,-1.1983 l -5.0238,-0.595 v 5.1393 5.1393 h 4.0657 c 2.2362,0 4.9362,-0.4658 6,-1.0352 z"
         id="path4372" />
      <path
         inkscape:connector-curvature="0"
         style="fill:#ffffff;stroke:#000000;stroke-opacity:1"
         d="m 1712.3472,1298.8136 c 0.3278,-1.2725 3.4848,-9.7386 7.0156,-18.8136 l 6.4196,-16.5 h 4.3254 4.3254 l 7.2147,18 c 3.9681,9.9 7.2457,18.3375 7.2834,18.75 0.038,0.4125 -1.9382,0.75 -4.3912,0.75 -4.3439,0 -4.4913,-0.105 -5.6699,-4.039 l -1.2101,-4.039 -7.4939,0.289 -7.4939,0.289 -1.1697,3.5 c -1.066,3.1897 -1.5502,3.5278 -5.4605,3.8136 -4.0486,0.2958 -4.2572,0.1829 -3.6949,-2 z"
         id="grande4370" />
      <path
         inkscape:connector-curvature="0"
         style="fill:#ffffff;stroke:#000000;stroke-opacity:1"
         d="m 1732.7434,1280.5 c -1.1143,-3.025 -2.3412,-5.5 -2.7264,-5.5 -0.3852,0 -1.2538,1.8468 -1.93,4.1041 -0.6763,2.2572 -1.4707,4.7322 -1.7653,5.5 -0.4094,1.0669 0.5231,1.3959 3.9561,1.3959 h 4.4917 z"
         id="path4368" />
    </g>
  </g>
  <g
     id="3PA">
    <path
       inkscape:connector-curvature="0"
       id="3PA_area"
       d="m 1410.057,1504.75 c 49.3409,-77.4295 51.6609,-171.8486 6.1779,-251.4325 l -4.6764,-8.1826 -100.5293,50.5888 c -55.291,27.8238 -100.6868,50.7135 -100.8793,50.866 -0.1926,0.1525 0.3699,3.1484 1.25,6.6577 2.025,8.0747 2.0519,20.5977 0.061,28.2428 -0.8467,3.2507 -3.0888,8.8281 -4.9824,12.3943 -1.8936,3.5662 -3.3384,6.55 -3.2105,6.6308 0.1278,0.081 39.6074,22.1363 87.7324,49.0123 48.125,26.876 93.35,52.1429 100.5,56.1488 7.15,4.0058 13.0675,7.2924 13.1499,7.3035 0.083,0.011 2.5157,-3.6924 5.4071,-8.2299 z"
       style="fill:#ffffff;stroke:#000000;stroke-opacity:1" />
    <g
       style="stroke:#000000;stroke-opacity:1"
       id="3PA_txt">
      <path
         inkscape:connector-curvature="0"
         style="fill:#ffffff;stroke:#000000;stroke-opacity:1"
         d="m 1290.4203,1399.1145 c -3.8566,-2.3517 -6.4472,-7.8512 -4.3299,-9.1915 2.6795,-1.6963 6.3869,-1.0334 7.4225,1.327 0.61,1.3905 2.0374,2.3709 3.7366,2.5664 2.2085,0.2541 2.9514,-0.2146 3.7755,-2.3821 0.5643,-1.4842 0.759,-3.5395 0.4327,-4.5674 -0.7455,-2.349 -3.8187,-4.0493 -5.8853,-3.2563 -1.2182,0.4675 -1.5724,-0.084 -1.5724,-2.449 0,-2.3452 0.6372,-3.3564 2.75,-4.3644 3.5743,-1.7052 4.3694,-6.3071 1.2602,-7.294 -2.3129,-0.7341 -5.0102,0.9452 -5.0102,3.1192 0,1.4926 -1.2406,1.6878 -4.75,0.7473 -4.608,-1.2349 -1.0224,-8.2996 5.2656,-10.3749 6.8727,-2.2681 14.4844,2.7163 14.4844,9.4851 0,1.9304 -0.7901,3.9252 -1.9819,5.0037 -1.9647,1.7781 -1.9551,1.8241 1.1102,5.3153 2.6866,3.0599 3.0201,4.0578 2.5436,7.6108 -0.7907,5.8946 -6.0737,10.5917 -11.9072,10.5866 -2.4064,0 -5.6067,-0.8221 -7.3444,-1.8818 z"
         id="grande4364" />
      <path
         inkscape:connector-curvature="0"
         style="fill:#ffffff;stroke:#000000;stroke-opacity:1"
         d="M 1315,1381.5 V 1363 h 11.3651 c 9.95,0 11.6903,0.2557 13.976,2.0536 3.6703,2.8871 5.2472,8.6338 3.6757,13.3956 -1.7309,5.2447 -5.9221,7.5424 -13.7668,7.5471 H 1324 v 7 7 h -4.5 -4.5 v -18.5 z"
         id="path4362" />
      <path
         inkscape:connector-curvature="0"
         style="fill:#ffffff;stroke:#000000;stroke-opacity:1"
         d="m 1334.8,1377.8 c 0.66,-0.66 1.2,-2.145 1.2,-3.3 0,-3.2615 -1.9816,-4.5 -7.2,-4.5 h -4.8 v 4.5 4.5 h 4.8 c 2.64,0 5.34,-0.54 6,-1.2 z"
         id="path4360" />
      <path
         inkscape:connector-curvature="0"
         style="fill:#ffffff;stroke:#000000;stroke-opacity:1"
         d="m 1342.9858,1399.25 c -0.01,-0.4125 3.0297,-8.728 6.75,-18.4789 l 6.7642,-17.7288 4.5305,-0.021 4.5305,-0.021 6.9695,17.6479 c 3.8332,9.7064 7.1195,18.0314 7.3028,18.5 0.1834,0.4687 -1.6609,0.8521 -4.0983,0.8521 -4.2417,0 -4.499,-0.1714 -6.0029,-4 l -1.5712,-4 h -6.9719 -6.9718 l -1.6005,4 c -1.4945,3.7351 -1.8659,4 -5.6086,4 -2.2045,0 -4.0145,-0.3375 -4.0223,-0.75 z"
         id="grande4358" />
      <path
         inkscape:connector-curvature="0"
         style="fill:#ffffff;stroke:#000000;stroke-opacity:1"
         d="m 1364.9441,1383.75 c -0.031,-0.6875 -0.8915,-3.275 -1.9128,-5.75 l -1.857,-4.5 -1.4673,3.5 c -3.2964,7.8626 -3.2754,8 1.2256,8 2.6171,0 4.0475,-0.4457 4.0115,-1.25 z"
         id="path4356" />
    </g>
  </g>
  <g
     id="3RA">
    <path
       inkscape:connector-curvature="0"
       id="3RA_area"
       d="m 1010.5,1443.2387 c 41.8,-23.3566 76.2958,-42.6411 76.6573,-42.8544 0.3615,-0.2132 -0.8767,-3.4245 -2.7517,-7.136 -5.0345,-9.9662 -6.7493,-17.9862 -6.1469,-28.7483 0.2771,-4.95 1.1861,-10.9315 2.0201,-13.2923 l 1.5164,-4.2922 -10.1476,-5.069 c -5.5812,-2.788 -48.7495,-24.6371 -95.9297,-48.5536 -68.87362,-34.9133 -86.06187,-43.2523 -87.20145,-42.3066 -2.10267,1.7451 -14.80093,28.0495 -18.91566,39.1838 -25.60247,69.279 -18.16978,145.477 20.42278,209.3689 l 4.98628,8.2551 19.74508,-11.0444 c 10.85979,-6.0744 53.94507,-30.1543 95.74507,-53.511 z"
       style="fill:#ffffff;stroke:#000000;stroke-opacity:1" />
    <g
       style="stroke:#000000;stroke-opacity:1"
       id="3RA_txt">
      <path
         inkscape:connector-curvature="0"
         style="fill:#ffffff;stroke:#000000;stroke-opacity:1"
         d="m 915.75566,1402.2452 c -3.63764,-2.2554 -6.53655,-8.1357 -4.61201,-9.3551 2.63041,-1.6668 6.34184,-0.9818 7.36922,1.3599 2.08797,4.7592 8.48713,2.6585 8.48713,-2.7861 0,-2.9995 -3.33933,-5.8084 -5.92834,-4.9866 -1.38229,0.4387 -2.06712,0.2191 -2.05801,-0.6599 0.035,-3.3801 1.38318,-5.7002 3.64163,-6.267 2.07596,-0.5211 2.41713,-1.128 2.15552,-3.8347 -0.42065,-4.3523 -4.21797,-5.1109 -6.00043,-1.1988 -1.02818,2.2566 -1.65431,2.5643 -4.18676,2.0578 -4.08758,-0.8175 -4.21685,-1.1075 -2.29265,-5.1425 4.64087,-9.732 20.66904,-6.8202 20.66904,3.7549 0,2.3934 -0.6973,4.5102 -1.87306,5.686 -1.83074,1.8307 -1.80815,1.9343 1,4.5847 4.8846,4.6103 3.29651,13.0887 -3.16677,16.9067 -3.56387,2.1052 -9.70628,2.0497 -13.20451,-0.1193 z"
         id="grande4352" />
      <path
         inkscape:connector-curvature="0"
         style="fill:#ffffff;stroke:#000000;stroke-opacity:1"
         d="M 941,1384.5 V 1366 h 11.92327 c 11.29322,0 12.08198,0.1335 14.92649,2.527 1.65176,1.3899 3.2868,3.8183 3.63342,5.3964 0.81612,3.7158 -1.62257,9.5556 -4.64852,11.1316 -1.28406,0.6687 -2.46915,1.3269 -2.63352,1.4626 -0.26225,0.2166 8.00466,12.6666 9.81734,14.785 0.37774,0.4415 3.7906,-7.3115 7.58416,-17.2288 l 6.89736,-18.0315 4.5305,-0.021 4.5305,-0.021 6.9695,17.6479 c 3.8332,9.7064 7.1195,18.0314 7.3028,18.5 0.1834,0.4687 -1.6609,0.8521 -4.0983,0.8521 -4.2417,0 -4.499,-0.1714 -6.0029,-4 l -1.5712,-4 h -6.97188 -6.97186 l -1.60048,4 -1.60049,4 h -8.97083 -8.97084 l -4.16826,-6.25 c -4.8696,-7.3016 -6.45827,-8.75 -9.59739,-8.75 -2.20659,0 -2.30887,0.3322 -2.30887,7.5 v 7.5 h -4 -4 v -18.5 z"
         id="path4350" />
      <path
         inkscape:connector-curvature="0"
         style="fill:#ffffff;stroke:#000000;stroke-opacity:1"
         d="m 996.94413,1386.75 c -0.0307,-0.6875 -0.89151,-3.275 -1.91283,-5.75 l -1.85696,-4.5 -1.46738,3.5 c -3.29641,7.8626 -3.27536,8 1.22565,8 2.61704,0 4.04747,-0.4457 4.01152,-1.25 z"
         id="path4348" />
      <path
         inkscape:connector-curvature="0"
         style="fill:#ffffff;stroke:#000000;stroke-opacity:1"
         d="m 961.83008,1380.1262 c 0.75546,-0.4789 1.18747,-2.0924 1,-3.7347 -0.32377,-2.8362 -0.45921,-2.8972 -7.08008,-3.1872 l -6.75,-0.2957 v 4.0457 4.0457 l 5.75,-0.015 c 3.1625,-0.01 6.34853,-0.3948 7.08008,-0.8585 z"
         id="path4346" />
    </g>
  </g>
  <g
     id="3EQ">
    <path
       inkscape:connector-curvature="0"
       id="3EQ_area"
       d="m 1160.5399,1413.4784 c 13.6268,-3.4789 27.2191,-13.3442 33.7262,-24.4784 10.0157,-17.1378 6.7838,-38.0669 -8.2022,-53.1155 -10.9597,-11.0054 -23.9915,-16.2022 -40.5639,-16.1757 -16.6259,0.026 -29.3721,5.1624 -40.7647,16.4257 -7.6624,7.5755 -11.3285,14.4431 -13.0381,24.424 -3.9059,22.8024 12.9487,46.0152 38.3744,52.8505 7.2307,1.9439 22.9855,1.9798 30.4683,0.069 z"
       style="fill:#ffffff;stroke:#000000;stroke-opacity:1" />
    <g
       style="stroke:#000000;stroke-opacity:1"
       id="3EQ_txt">
      <path
         inkscape:connector-curvature="0"
         style="fill:#ffffff;stroke:#000000;stroke-opacity:1"
         d="m 1189.1901,1382.9745 c -2.7777,-1.6935 -4.3182,-1.9146 -9.5824,-1.3753 -11.1131,1.1386 -18.2942,-3.7758 -20.6087,-14.1035 -2.0702,-9.238 0.8626,-17.4641 7.9227,-22.2219 4.1875,-2.822 13.4767,-3.1277 18.7664,-0.6175 7.6527,3.6314 11.3901,15.644 7.8851,25.3437 -0.8944,2.475 -1.7267,4.8794 -1.8496,5.3431 -0.188,0.7089 0.6366,1.3777 4.161,3.3748 0.5808,0.3292 -2.0325,6.2827 -2.7559,6.2784 -0.3458,0 -2.1181,-0.9119 -3.9386,-2.0218 z"
         id="path4342" />
      <path
         inkscape:connector-curvature="0"
         style="fill:#ffffff;stroke:#000000;stroke-opacity:1"
         d="m 1176.5686,1373.6738 c -1.2673,-0.9267 -1.6059,-1.981 -1.1238,-3.5 0.8236,-2.5947 1.6743,-2.6807 5.7376,-0.5795 3.5227,1.8217 4.2523,1.2328 5.2836,-4.2646 2.1882,-11.6641 -8.9398,-20.0097 -16.5429,-12.4066 -2.526,2.5259 -2.9231,3.6743 -2.9231,8.4529 0,6.9471 1.6108,10.5441 5.4758,12.2281 4.1118,1.7915 6.5032,1.8322 4.0928,0.07 z"
         id="path4340" />
      <path
         inkscape:connector-curvature="0"
         style="fill:#ffffff;stroke:#000000;stroke-opacity:1"
         d="m 1101.4487,1380.4485 c -3.162,-1.5605 -6.4487,-6.0725 -6.4487,-8.8528 0,-1.1782 0.9845,-1.5957 3.7629,-1.5957 2.9431,0 3.9779,0.4902 4.75,2.25 1.407,3.207 5.4927,2.9942 7.3893,-0.3848 1.3317,-2.3726 1.3018,-2.9049 -0.3001,-5.3497 -1.3345,-2.0367 -2.3813,-2.5997 -4.1905,-2.2539 -2.0855,0.3987 -2.4116,0.082 -2.4116,-2.3457 0,-2.0757 0.7162,-3.1501 2.75,-4.1248 2.0919,-1.0026 2.75,-2.0327 2.75,-4.3046 0,-2.5189 -0.3914,-2.9865 -2.5,-2.9865 -1.6514,0 -2.8394,0.7801 -3.5,2.2982 -0.7144,1.6418 -1.5712,2.1455 -3,1.7637 -1.1,-0.294 -2.5625,-0.5407 -3.25,-0.5482 -2.2199,-0.024 -1.3296,-3.8931 1.668,-7.2479 2.5816,-2.8894 3.5131,-3.2658 8.082,-3.2658 4.5689,0 5.5004,0.3764 8.082,3.2658 3.4811,3.8959 3.7707,7.8805 0.8433,11.6021 -1.8368,2.335 -1.8899,2.7085 -0.463,3.256 2.0215,0.7757 4.5389,5.5376 4.534,8.5764 -0.01,3.3489 -3.4513,8.4665 -6.9024,10.2512 -3.7525,1.9404 -7.7095,1.9394 -11.6452,0 z"
         id="path4338" />
      <path
         inkscape:connector-curvature="0"
         style="fill:#ffffff;stroke:#000000;stroke-opacity:1"
         d="m 1125.2279,1362.25 0.2721,-18.75 h 14 14 l 0.3134,3.25 0.3133,3.25 H 1144.0634 1134 v 4 4 h 9 9 v 3.5 3.5 h -9 -9 v 4.5 4.5 h 10 10 v 3.5 3.5 h -14.5221 -14.522 z"
         id="path4336" />
    </g>
  </g>
  <g
     id="3AR">
    <path
       inkscape:connector-curvature="0"
       id="3AR_area"
       d="m 1094.7801,1327.1616 c 6.3201,-6.397 9.4889,-8.6945 17.232,-12.4941 9.5114,-4.6673 18.9799,-7.6675 24.198,-7.6675 H 1139 v -39.2922 -39.2922 l -61.6611,-45.1369 -61.6611,-45.137 -8.8678,4.4537 c -29.04815,14.5889 -60.17459,37.2751 -80.40016,58.5989 -13.26802,13.9885 -30.54178,36.0071 -29.2563,37.2926 0.42855,0.4285 188.93466,96.3245 189.61446,96.4598 0.1474,0.029 3.7528,-3.474 8.0121,-7.7851 z"
       style="fill:#ffffff;stroke:#000000;stroke-opacity:1" />
    <g
       style="stroke:#000000;stroke-opacity:1"
       id="3AR_txt">
      <path
         inkscape:connector-curvature="0"
         style="fill:#ffffff;stroke:#000000;stroke-opacity:1"
         d="m 991.18587,1258.5029 c -2.51652,-2.1175 -4.97085,-7.0647 -3.98454,-8.0317 0.16427,-0.1611 1.92758,-0.5971 3.91846,-0.9689 3.2728,-0.6112 3.67938,-0.4386 4.24137,1.8005 1.11624,4.4475 6.00814,4.4861 7.69074,0.061 1.4861,-3.9089 -0.4329,-7.3636 -4.09051,-7.3636 -2.88163,0 -3.06716,-0.2173 -2.77475,-3.25 0.2401,-2.4902 0.83902,-3.3247 2.56171,-3.5693 1.42725,-0.2028 2.47885,-1.2379 2.87965,-2.8347 1.2269,-4.8881 -4.65689,-6.9811 -6.17541,-2.1966 -0.47814,1.5065 -1.36143,1.893 -3.78806,1.6576 -2.83802,-0.2753 -3.14259,-0.6165 -2.95186,-3.307 0.32758,-4.6211 4.32729,-7.5 10.42002,-7.5 4.21641,0 5.48971,0.4685 7.94421,2.9231 3.5622,3.5621 3.9968,9.0032 0.9616,12.0384 -1.9488,1.9488 -1.9422,1.9809 1,4.9231 3.389,3.389 3.7557,6.6394 1.3267,11.7583 -3.1403,6.6177 -13.43884,8.6903 -19.17933,3.86 z"
         id="path4332" />
      <path
         inkscape:connector-curvature="0"
         style="fill:#ffffff;stroke:#000000;stroke-opacity:1"
         d="m 1014,1260.4329 c 0,-0.312 3.2182,-8.8838 7.1515,-19.0486 l 7.1515,-18.4815 4.3893,0.2986 4.3894,0.2986 6.956,17.5 c 3.8259,9.625 6.9575,18.0625 6.9592,18.75 0,0.7878 -1.4454,1.25 -3.9142,1.25 -3.7214,0 -4.0032,-0.225 -5.6359,-4.5 l -1.7185,-4.5 h -6.8997 -6.8997 l -1.9289,4.5 c -1.8309,4.2713 -2.134,4.5 -5.9645,4.5 -2.2195,0 -4.0355,-0.2552 -4.0355,-0.5671 z"
         id="path4330" />
      <path
         inkscape:connector-curvature="0"
         style="fill:#ffffff;stroke:#000000;stroke-opacity:1"
         d="m 1036.5012,1243.25 c -0.392,-0.9625 -1.4179,-3.7666 -2.2798,-6.2314 -0.8917,-2.55 -1.7656,-3.843 -2.0276,-3 -0.2533,0.8148 -1.2573,3.6189 -2.2311,6.2314 l -1.7706,4.75 h 4.511 c 3.9009,0 4.4145,-0.2366 3.7981,-1.75 z"
         id="path4328" />
      <path
         inkscape:connector-curvature="0"
         style="fill:#ffffff;stroke:#000000;stroke-opacity:1"
         d="m 1055,1241.9184 v -19.0815 l 12.5845,0.3315 12.5844,0.3316 2.9156,3.2658 c 4.6198,5.1748 3.3144,13.3645 -2.5566,16.0395 l -2.6221,1.1947 2.9281,3.75 c 1.6105,2.0625 4.1495,5.8875 5.6422,8.5 l 2.7139,4.75 -4.845,-0.01 c -4.8438,-0.01 -4.846,-0.01 -8.845,-6.2375 -5.1412,-8.0057 -6.9335,-9.7538 -10,-9.7538 -2.4583,0 -2.5,0.1333 -2.5,8 v 8 h -4 -4 v -19.0816 z"
         id="path4326" />
      <path
         inkscape:connector-curvature="0"
         style="fill:#ffffff;stroke:#000000;stroke-opacity:1"
         d="m 1077,1236 c 0.7605,-1.421 0.7605,-2.579 0,-4 -0.9009,-1.6834 -2.0938,-2 -7.5352,-2 H 1063 v 4 4 h 6.4648 c 5.4414,0 6.6343,-0.3166 7.5352,-2 z"
         id="path4324" />
    </g>
  </g>
  <g
     id="3AP">
    <path
       inkscape:connector-curvature="0"
       id="3AP_area"
       d="m 1302.2871,1285.5085 c 54.0691,-27.2204 99.087,-50.0616 100.0398,-50.7583 1.571,-1.1487 0.9206,-2.2901 -6.9845,-12.2584 -21.4517,-27.0506 -48.7901,-50.9761 -78.3424,-68.5623 -13.5961,-8.0908 -36.6403,-19.299 -38.2482,-18.6031 -0.6885,0.298 -29.3768,21.4026 -63.7518,46.8991 l -62.5,46.3572 v 38.9449 38.9449 l 5.2624,0.7573 c 14.2047,2.0442 28.2103,9.4064 38.7376,20.3628 3.85,4.0069 7.1079,7.3128 7.2398,7.3464 0.1319,0.034 44.4782,-22.2102 98.5473,-49.4305 z"
       style="fill:#ffffff;stroke:#000000;stroke-opacity:1" />
    <g
       style="stroke:#000000;stroke-opacity:1"
       id="3AP_txt">
      <path
         inkscape:connector-curvature="0"
         style="fill:#ffffff;stroke:#000000;stroke-opacity:1"
         d="m 1191.1859,1261.5029 c -2.5166,-2.1175 -4.9709,-7.0647 -3.9846,-8.0317 0.1643,-0.1611 1.9276,-0.5971 3.9185,-0.9689 3.2728,-0.6112 3.6794,-0.4386 4.2414,1.8005 1.1162,4.4475 6.0081,4.4861 7.6907,0.061 1.4861,-3.9089 -0.4329,-7.3636 -4.0905,-7.3636 -2.8816,0 -3.0672,-0.2173 -2.7748,-3.25 0.2401,-2.4902 0.8391,-3.3247 2.5617,-3.5693 1.4273,-0.2028 2.4789,-1.2379 2.8797,-2.8347 1.2269,-4.8881 -4.6569,-6.9811 -6.1754,-2.1966 -0.4782,1.5065 -1.3614,1.893 -3.7881,1.6576 -2.838,-0.2753 -3.1426,-0.6165 -2.9518,-3.307 0.3276,-4.6211 4.3273,-7.5 10.42,-7.5 4.2164,0 5.4897,0.4685 7.9442,2.9231 3.5622,3.5621 3.9968,9.0032 0.9616,12.0384 -1.9488,1.9488 -1.9422,1.9809 1,4.9231 3.389,3.389 3.7557,6.6394 1.3267,11.7583 -3.1403,6.6177 -13.4388,8.6903 -19.1793,3.86 z"
         id="path4320" />
      <path
         inkscape:connector-curvature="0"
         style="fill:#ffffff;stroke:#000000;stroke-opacity:1"
         d="m 1214,1263.1419 c 0,-0.5352 3.114,-8.9986 6.9199,-18.8075 l 6.92,-17.8344 4.3816,-0.2967 4.3816,-0.2967 7.1985,18.077 c 3.9591,9.9423 7.1984,18.5392 7.1984,19.1042 0,0.5877 -1.7812,0.8956 -4.1628,0.7197 -3.896,-0.2878 -4.2618,-0.5799 -5.7067,-4.5575 l -1.5438,-4.25 h -7.0867 -7.0867 l -1.5438,4.25 c -1.4449,3.9776 -1.8107,4.2697 -5.7067,4.5575 -2.2895,0.1691 -4.1628,-0.1304 -4.1628,-0.6656 z"
         id="path4318" />
      <path
         inkscape:connector-curvature="0"
         style="fill:#ffffff;stroke:#000000;stroke-opacity:1"
         d="m 1235.1258,1243.25 c -1.0147,-2.6125 -2.0316,-5.3454 -2.2597,-6.073 -0.2281,-0.7277 -1.3981,1.4098 -2.5999,4.75 l -2.1851,6.073 h 4.4449 4.4448 z"
         id="path4316" />
      <path
         inkscape:connector-curvature="0"
         style="fill:#ffffff;stroke:#000000;stroke-opacity:1"
         d="m 1255,1245 v -19 h 11.1 11.1 l 3.4,3.4 c 2.7862,2.7862 3.4,4.1575 3.4,7.5957 0,4.9605 -2.3519,9.388 -5.8283,10.9719 -1.3738,0.626 -5.3494,1.4044 -8.8347,1.7299 l -6.337,0.5917 v 6.8554 6.8554 h -4 -4 z"
         id="path4314" />
      <path
         inkscape:connector-curvature="0"
         style="fill:#ffffff;stroke:#000000;stroke-opacity:1"
         d="m 1274.6059,1240.9121 c 0.7667,-0.6363 1.3941,-1.9697 1.3941,-2.9631 0,-3.2158 -2.8267,-4.949 -8.0714,-4.949 H 1263 v 5.1393 5.1393 l 5.1059,-0.6047 c 2.8082,-0.3326 5.7332,-1.1254 6.5,-1.7618 z"
         id="path4312" />
    </g>
  </g>
  <g
     id="2AR">
    <path
       inkscape:connector-curvature="0"
       id="2AR_area"
       d="m 889.98048,1224.3409 c 26.03253,-37.2852 67.69082,-72.3497 110.84092,-93.2966 l 9.1786,-4.4557 -0.012,-54.0443 L 1009.976,1018.5 755.10231,872.88661 500.22914,727.27322 482.22433,754.38661 C 445.51859,809.66168 415.59545,858.31861 388.98482,906 c -14.76394,26.45427 -31.50019,59.32213 -30.41238,59.726 0.51016,0.18941 118.82756,60.1617 262.92756,133.2717 144.1,73.1101 262.2549,132.9442 262.56643,132.9648 0.31154,0.021 2.97287,-3.4091 5.91405,-7.6216 z"
       style="fill:#ffffff;stroke:#000000;stroke-opacity:1" />
    <g
       style="stroke:#000000;stroke-opacity:1"
       id="2AR_txt">
      <path
         inkscape:connector-curvature="0"
         style="fill:#ffffff;stroke:#000000;stroke-opacity:1"
         d="m 654,1008.9343 c 0,-3.3245 1.8102,-5.9693 9.62955,-14.06946 5.91227,-6.12461 7.37045,-8.24445 7.37045,-10.71482 0,-4.18212 -3.13444,-5.94718 -6.56706,-3.69804 -1.33812,0.87677 -2.43294,2.25875 -2.43294,3.07107 0,1.52897 -1.98447,1.75219 -5.57666,0.62727 -1.80419,-0.565 -1.96315,-1.08172 -1.21154,-3.93841 1.19967,-4.55962 5.8266,-7.20341 12.61512,-7.20817 4.55696,-0.003 5.74943,0.41877 8.25,2.91934 2.28997,2.28996 2.92308,3.82034 2.92308,7.06574 0,5.37621 -1.06917,7.32294 -7.83241,14.26118 l -5.60498,5.75 H 672.2813 679 v 4 4 h -12.5 c -11.96594,0 -12.5,-0.088 -12.5,-2.0657 z"
         id="path4308" />
      <path
         inkscape:connector-curvature="0"
         style="fill:#ffffff;stroke:#000000;stroke-opacity:1"
         d="m 681.16667,1010.0918 c 0.18333,-0.4995 3.48333,-9.0683 7.33333,-19.04165 l 7,-18.13346 4.45961,0.29166 4.45962,0.29165 7.28262,18.5 c 4.00544,10.175 7.28611,18.6125 7.29038,18.75 0.004,0.1375 -1.97973,0.25 -4.4089,0.25 -4.30719,0 -4.45178,-0.1053 -5.83333,-4.25 l -1.41667,-4.25 H 700 692.66667 l -1.41667,4.25 c -1.38683,4.1605 -1.51144,4.25 -5.91667,4.25 -2.475,0 -4.35,-0.4087 -4.16666,-0.9082 z"
         id="path4306" />
      <path
         inkscape:connector-curvature="0"
         style="fill:#ffffff;stroke:#000000;stroke-opacity:1"
         d="m 703.4476,992.75 c -0.37795,-1.2375 -1.343,-3.825 -2.14456,-5.75 l -1.45737,-3.5 -1.92202,5 c -1.05711,2.75 -1.92239,5.3375 -1.92284,5.75 -4.4e-4,0.4125 1.82951,0.75 4.06658,0.75 3.75497,0 4.0146,-0.17282 3.38021,-2.25 z"
         id="path4304" />
      <path
         inkscape:connector-curvature="0"
         style="fill:#ffffff;stroke:#000000;stroke-opacity:1"
         d="m 722.71426,1010.3809 c -0.39284,-0.3928 -0.71426,-9 -0.71426,-19.12704 v -18.4128 l 13.08898,0.32947 c 12.92624,0.32537 13.11896,0.36436 15.5,3.13523 4.53262,5.27473 2.37449,15.30151 -3.70902,17.23234 -2.03497,0.64587 -2.02829,0.69853 0.42004,3.30911 2.48448,2.64913 8.7,12.30349 8.7,13.51339 0,0.3517 -1.97214,0.6394 -4.38254,0.6394 -4.29611,0 -4.46667,-0.1291 -8.6481,-6.547 -4.47209,-6.86405 -7.25188,-9.453 -10.1498,-9.453 -1.47283,0 -1.77963,1.1727 -2.0275,7.75 l -0.29206,7.75 -3.53574,0.2976 c -1.94466,0.1637 -3.85716,-0.024 -4.25,-0.4167 z"
         id="path4302" />
      <path
         inkscape:connector-curvature="0"
         style="fill:#ffffff;stroke:#000000;stroke-opacity:1"
         d="m 744.39091,985.75 c 2.07999,-3.3125 -0.40643,-5.21646 -7.24489,-5.54772 L 731,979.90457 V 984 v 4.09543 l 6.14602,-0.29771 c 4.54361,-0.2201 6.43253,-0.75399 7.24489,-2.04772 z"
         id="path4300" />
    </g>
  </g>
  <g
     id="2AP">
    <path
       inkscape:connector-curvature="0"
       id="2AP_area"
       d="m 1660,1105.2787 c 191.9149,-96.6897 268.1483,-135.21466 268.905,-135.89252 0.7925,-0.71003 -5.4855,-14.29306 -20.053,-43.38618 -22.2583,-44.45236 -48.2845,-89.79045 -78.9316,-137.5 -17.8184,-27.73864 -38.2037,-57.76844 -39.4874,-58.16945 -0.5132,-0.16029 -114.558,64.40649 -253.433,143.48174 l -252.5,143.77321 -0.2384,52.4572 -0.2384,52.4573 7.7384,3.3538 c 19.7685,8.5678 47.7519,25.6807 67.2384,41.1189 14.2457,11.2861 36.4868,33.9133 47.8834,48.7146 l 9.3834,12.1866 26.1166,-13.0572 c 14.3641,-7.1815 112.2916,-56.4736 217.6166,-109.538 z"
       style="fill:#ffffff;stroke:#000000;stroke-opacity:1" />
    <g
       style="stroke:#000000;stroke-opacity:1"
       id="2AP_txt">
      <path
         inkscape:connector-curvature="0"
         style="fill:#ffffff;stroke:#000000;stroke-opacity:1"
         d="m 1561,1002.9343 c 0,-3.32445 1.8102,-5.96928 9.6295,-14.06946 5.9123,-6.12461 7.3705,-8.24445 7.3705,-10.71482 0,-4.18212 -3.1344,-5.94718 -6.5671,-3.69804 -1.3381,0.87677 -2.4329,2.25875 -2.4329,3.07107 0,1.52897 -1.9845,1.75219 -5.5767,0.62727 -1.8042,-0.565 -1.9631,-1.08172 -1.2115,-3.93841 1.1997,-4.55962 5.8266,-7.20341 12.6151,-7.20817 4.557,-0.003 5.7495,0.41877 8.25,2.91934 2.29,2.28996 2.9231,3.82034 2.9231,7.06574 0,5.37621 -1.0692,7.32294 -7.8324,14.26118 l -5.605,5.75 h 6.7187 6.7187 v 4 4 h -12.5 c -11.9659,0 -12.5,-0.088 -12.5,-2.0657 z"
         id="path4296" />
      <path
         inkscape:connector-curvature="0"
         style="fill:#ffffff;stroke:#000000;stroke-opacity:1"
         d="m 1588.1667,1004.0918 c 0.1833,-0.4995 3.4833,-9.06825 7.3333,-19.04165 l 7,-18.13346 4.4596,0.29166 4.4596,0.29165 7.2826,18.5 c 4.0055,10.175 7.2862,18.6125 7.2904,18.75 0,0.1375 -1.9797,0.25 -4.4089,0.25 -4.3072,0 -4.4517,-0.1053 -5.8333,-4.25 l -1.4167,-4.25 H 1607 h -7.3333 l -1.4167,4.25 c -1.3868,4.1605 -1.5114,4.25 -5.9167,4.25 -2.475,0 -4.35,-0.4087 -4.1666,-0.9082 z"
         id="path4294" />
      <path
         inkscape:connector-curvature="0"
         style="fill:#ffffff;stroke:#000000;stroke-opacity:1"
         d="m 1610.4476,986.75 c -0.3779,-1.2375 -1.343,-3.825 -2.1446,-5.75 l -1.4573,-3.5 -1.9221,5 c -1.0571,2.75 -1.9223,5.3375 -1.9228,5.75 -4e-4,0.4125 1.8295,0.75 4.0666,0.75 3.755,0 4.0146,-0.17282 3.3802,-2.25 z"
         id="path4292" />
      <path
         inkscape:connector-curvature="0"
         style="fill:#ffffff;stroke:#000000;stroke-opacity:1"
         d="M 1629.7143,1004.3809 C 1629.3214,1003.9881 1629,995.41667 1629,985.33333 V 967 l 10.75,0.004 c 8.8908,0.003 11.3027,0.34072 13.9455,1.95217 4.3696,2.6643 6.1647,8.49698 4.2022,13.65347 -2.0197,5.30635 -5.2954,7.31624 -13.1139,8.04635 l -6.6988,0.62555 -0.2925,6.60936 -0.2925,6.6094 -3.5357,0.2976 c -1.9447,0.1637 -3.8572,-0.024 -4.25,-0.4167 z"
         id="path4290" />
      <path
         inkscape:connector-curvature="0"
         style="fill:#ffffff;stroke:#000000;stroke-opacity:1"
         d="m 1648.4995,982.00045 c 1.8023,-1.49577 1.9632,-5.13774 0.3005,-6.80045 -0.66,-0.66 -3.36,-1.2 -6,-1.2 h -4.8 v 5.13005 5.13005 l 4.4995,-0.50715 c 2.4747,-0.27893 5.1747,-1.06756 6,-1.7525 z"
         id="path4288" />
    </g>
  </g>
  <g
     id="2EQ">
    <path
       inkscape:connector-curvature="0"
       id="2EQ_area"
       d="m 1209.4469,1170 61.5054,-45.5 0.024,-24.25 0.024,-24.25 h -123.5 -123.5 v 24.441 c 0,15.2153 0.3775,24.6743 1,25.059 0.55,0.3399 1.0142,1.379 1.0315,2.309 0.041,2.1831 117.7794,88.3588 120.1892,87.9692 0.9464,-0.153 29.3982,-20.7532 63.2262,-45.7782 z"
       style="fill:#ffffff;stroke:#000000;stroke-opacity:1" />
    <g
       style="stroke:#000000;stroke-opacity:1"
       id="2EQ_txt">
      <path
         inkscape:connector-curvature="0"
         style="fill:#ffffff;stroke:#000000;stroke-opacity:1"
         d="m 1189.0079,1154.293 c -1.8301,-1.2819 -4.6064,-1.7177 -11.1475,-1.75 -9.6023,-0.047 -12.3436,-1.2657 -16.4652,-7.3174 -4.3773,-6.4272 -3.6648,-19.3748 1.3972,-25.3908 6.5677,-7.8052 20.2888,-7.9096 27.337,-0.208 5.2257,5.7103 6.2797,16.8139 2.3223,24.4666 -0.9893,1.913 -1.2966,3.4583 -0.7257,3.6486 0.5447,0.1816 1.7625,0.8947 2.7061,1.5847 1.4673,1.0729 1.537,1.6471 0.4813,3.964 -1.4374,3.1547 -2.5604,3.3453 -5.9055,1.0023 z"
         id="path4284" />
      <path
         inkscape:connector-curvature="0"
         style="fill:#ffffff;stroke:#000000;stroke-opacity:1"
         d="m 1176.75,1144.9199 c -1.9084,-1.1115 -2.1927,-2.6731 -0.8674,-4.7642 0.704,-1.1108 1.3875,-1.0674 3.935,0.25 4.4131,2.2821 4.9798,2.0604 6.1864,-2.4205 1.3689,-5.0838 0.3864,-10.4198 -2.5464,-13.8294 -3.0654,-3.5638 -10.2685,-3.7893 -13.6311,-0.4267 -2.7328,2.7328 -3.7077,13.2584 -1.5978,17.2512 1.4515,2.7467 5.1958,4.9986 8.2713,4.9745 1.8374,-0.014 1.8577,-0.099 0.25,-1.0349 z"
         id="path4282" />
      <path
         inkscape:connector-curvature="0"
         style="fill:#ffffff;stroke:#000000;stroke-opacity:1"
         d="m 1094,1151.4679 c 0,-2.7667 4.3904,-9.253 10.5411,-15.5735 7.6583,-7.8696 8.7767,-10.4338 5.8343,-13.3762 -2.2491,-2.249 -5.6179,-1.518 -7.0766,1.5356 -1.0385,2.1741 -1.7461,2.4924 -4.7593,2.1406 -3.9388,-0.4598 -4.3614,-1.7044 -2.0779,-6.1201 3.1544,-6.1 14.5473,-7.5757 19.9354,-2.5822 5.9483,5.5127 4.3015,13.0746 -4.7161,21.6554 l -6.1504,5.8525 h 7.2348 7.2347 v 3.5 3.5 h -13 c -7.15,0 -13,-0.2395 -13,-0.5321 z"
         id="path4280" />
      <path
         inkscape:connector-curvature="0"
         style="fill:#ffffff;stroke:#000000;stroke-opacity:1"
         d="M 1125,1133.5 V 1115 h 14.5634 14.5633 l -0.3133,3.25 -0.3134,3.25 -9.75,0.2862 -9.75,0.2862 v 3.4638 3.4638 h 9 9 v 3.5 3.5 h -9 -9 v 4.5 4.5 h 10 10 v 3.5 3.5 h -14.5 -14.5 z"
         id="path4278" />
    </g>
  </g>
  <g
     id="2A">
    <path
       inkscape:connector-curvature="0"
       id="2A_area"
       d="m 1271,883.83333 c 0,-98.54166 -0.1727,-178.97916 -0.3838,-178.75 -0.2111,0.22917 -28.3655,62.74167 -62.5653,138.91667 -34.1998,76.175 -62.4955,138.82084 -62.8792,139.21297 -0.3837,0.39214 -28.1103,-60.68941 -61.6146,-135.73676 -33.5043,-75.04735 -61.072,-136.29468 -61.2615,-136.10518 -0.1895,0.18951 -0.034,79.38356 0.3446,175.98677 L 1023.3294,1063 H 1147.1647 1271 Z"
       style="fill:#ffffff;stroke:#000000;stroke-opacity:1" />
    <g
       style="stroke:#000000;stroke-opacity:1"
       id="2A_txt">
      <path
         inkscape:connector-curvature="0"
         style="fill:#ffffff;stroke:#000000;stroke-opacity:1"
         d="m 1116,1048.4679 c 0,-2.7667 4.3904,-9.253 10.5411,-15.5735 7.6583,-7.8696 8.7767,-10.4338 5.8343,-13.3762 -2.2491,-2.249 -5.6179,-1.518 -7.0766,1.5356 -1.0385,2.1741 -1.7461,2.4924 -4.7593,2.1406 -3.9388,-0.4598 -4.3614,-1.7044 -2.0779,-6.1201 3.1544,-6.1 14.5473,-7.5757 19.9354,-2.5822 5.9483,5.5127 4.3015,13.0746 -4.7161,21.6554 l -6.1504,5.8525 h 7.2348 7.2347 v 3.5 3.5 h -13 c -7.15,0 -13,-0.2395 -13,-0.5321 z"
         id="path4274" />
      <path
         inkscape:connector-curvature="0"
         style="fill:#ffffff;stroke:#000000;stroke-opacity:1"
         d="m 1144.4875,1047.25 c 0.3858,-0.9625 3.3165,-8.5 6.5125,-16.75 3.196,-8.25 6.1352,-15.8098 6.5315,-16.7996 0.5726,-1.43 1.6456,-1.7381 5.2238,-1.5 l 4.5032,0.2996 6.8707,17.3809 c 3.779,9.5596 6.8708,17.7721 6.8708,18.25 0,0.478 -1.8362,0.8691 -4.0804,0.8691 -3.832,0 -4.1762,-0.2436 -5.6517,-4 l -1.5713,-4 h -7.19 -7.19 l -1.1985,4 c -1.1708,3.9078 -1.3036,4 -5.7652,4 -3.95,0 -4.4721,-0.2364 -3.8654,-1.75 z"
         id="path4272" />
      <path
         inkscape:connector-curvature="0"
         style="fill:#ffffff;stroke:#000000;stroke-opacity:1"
         d="m 1166.5012,1032.25 c -0.392,-0.9625 -1.4179,-3.7666 -2.2798,-6.2314 -0.8986,-2.5698 -1.7666,-3.8495 -2.0347,-3 -0.2571,0.8148 -1.2978,3.6189 -2.3125,6.2314 l -1.845,4.75 h 4.5924 c 3.9786,0 4.4971,-0.2339 3.8796,-1.75 z"
         id="path4270" />
    </g>
  </g>
  <g
     id="1AR">
    <path
       inkscape:connector-curvature="0"
       id="1AR_area"
       d="m 1009.3218,841.35606 -0.6539,-161.64394 -25.93032,-58.10606 C 952.47606,553.79438 853.82483,331.98148 851.84919,327.30935 L 850.5,324.11869 835,337.67409 C 764.23191,399.56372 703.76477,459.99769 658.57728,514 c -29.98157,35.83014 -90.04207,115.78628 -133.96945,178.34817 -9.20966,13.11649 -16.6015,23.98398 -16.42633,24.14998 0.79471,0.75306 500.4025,286.34225 501.0563,286.41725 0.4058,0.047 0.4436,-72.65517 0.084,-161.55934 z"
       style="fill:#ffffff;stroke:#000000;stroke-opacity:1" />
    <g
       style="stroke:#000000;stroke-opacity:1"
       id="1AR_txt">
      <path
         inkscape:connector-curvature="0"
         style="fill:#ffffff;stroke:#000000;stroke-opacity:1"
         d="m 749,692.91844 v -13.08156 l -3.36803,2.08156 c -4.59994,2.84292 -5.63648,2.62684 -5.60507,-1.16844 0.0222,-2.68423 0.7024,-3.66648 3.90723,-5.64241 2.13419,-1.31583 4.44813,-3.45333 5.14209,-4.75 C 750.01408,668.60517 751.193,668 753.66898,668 H 757 v 19 19 h -4 -4 z"
         id="path4266" />
      <path
         inkscape:connector-curvature="0"
         style="fill:#ffffff;stroke:#000000;stroke-opacity:1"
         d="m 765.00514,704.8075 c 0.003,-0.71913 3.09425,-9.1825 6.86983,-18.8075 l 6.86469,-17.5 4.38017,-0.27237 4.38017,-0.27237 6.701,17.27237 c 3.68555,9.4998 6.9962,18.05987 7.35699,19.02237 0.56262,1.50092 0.0297,1.75 -3.74435,1.75 -4.26766,0 -4.44695,-0.12814 -5.94651,-4.25 l -1.54618,-4.25 -7.06319,-0.29185 -7.0632,-0.29184 -1.425,4.29184 c -1.34547,4.05233 -1.65785,4.30901 -5.59728,4.59935 -2.92766,0.21577 -4.17075,-0.0825 -4.16714,-1 z"
         id="path4264" />
      <path
         inkscape:connector-curvature="0"
         style="fill:#ffffff;stroke:#000000;stroke-opacity:1"
         d="m 786.99919,689.25 c -4.5e-4,-0.4125 -0.86335,-3 -1.91756,-5.75 -1.5915,-4.15157 -2.04063,-4.66063 -2.64682,-3 -0.40155,1.1 -1.33865,3.51746 -2.08245,5.37212 -0.7438,1.85467 -1.35236,3.54217 -1.35236,3.75 0,0.20784 1.8,0.37788 4,0.37788 2.2,0 3.99963,-0.3375 3.99919,-0.75 z"
         id="path4262" />
      <path
         inkscape:connector-curvature="0"
         style="fill:#ffffff;stroke:#000000;stroke-opacity:1"
         d="m 806,687 v -19 l 10.75,0.002 c 13.31993,0.002 17.04865,1.46994 19.14671,7.53815 1.24267,3.59416 1.20736,4.43873 -0.32016,7.65774 -1.02755,2.1654 -2.91357,4.11373 -4.69744,4.85263 l -2.98057,1.2346 2.44973,2.60766 C 833.04282,694.76061 839,703.92075 839,705.19578 839,705.6381 837.04102,706 834.64672,706 c -4.282,0 -4.42991,-0.11523 -9.0327,-7.03718 C 821.47374,692.73642 818.21333,690 814.9349,690 814.42071,690 814,693.6 814,698 v 8 h -4 -4 z"
         id="path4260" />
      <path
         inkscape:connector-curvature="0"
         style="fill:#ffffff;stroke:#000000;stroke-opacity:1"
         d="m 825.4349,683.02475 c 1.7382,-0.66086 2.5651,-1.72466 2.5651,-3.3 C 828,676.10715 826.0785,675 819.8,675 H 814 v 4.5 4.5 h 4.4349 c 2.4392,0 5.5892,-0.43886 7,-0.97525 z"
         id="path4258" />
    </g>
  </g>
  <g
     id="1AP">
    <path
       inkscape:connector-curvature="0"
       id="1AP_area"
       d="m 1532.0689,861.51013 c 134.9871,-76.83039 246.6553,-140.45291 248.1515,-141.38337 l 2.7203,-1.69175 -18.2381,-25.4675 C 1713.7371,621.79986 1648.7405,541.03264 1590.1002,476 1547.2903,428.5234 1489.5542,369.99813 1449.3584,333.33436 l -8.8584,-8.08003 -15.3936,34.62283 c -8.4664,19.04256 -43.6789,97.73882 -78.25,174.88058 L 1284,675.01548 v 163.59925 c 0,135.02677 0.2303,163.51087 1.3189,163.09317 0.7254,-0.2784 111.7629,-63.36737 246.75,-140.19777 z"
       style="fill:#ffffff;stroke:#000000;stroke-opacity:1" />
    <g
       style="stroke:#000000;stroke-opacity:1"
       id="1AP_txt">
      <path
         inkscape:connector-curvature="0"
         style="fill:#ffffff;stroke:#000000;stroke-opacity:1"
         d="m 1444,692.91844 v -13.08156 l -3.368,2.08156 c -4.6,2.84292 -5.6365,2.62684 -5.6051,-1.16844 0.022,-2.68423 0.7024,-3.66648 3.9072,-5.64241 2.1342,-1.31583 4.4482,-3.45333 5.1421,-4.75 C 1445.0141,668.60517 1446.193,668 1448.669,668 H 1452 v 19 19 h -4 -4 z"
         id="path4254" />
      <path
         inkscape:connector-curvature="0"
         style="fill:#ffffff;stroke:#000000;stroke-opacity:1"
         d="m 1460.0051,704.8075 c 0,-0.71913 3.0943,-9.1825 6.8699,-18.8075 l 6.8647,-17.5 4.3801,-0.27237 4.3802,-0.27237 6.701,17.27237 c 3.6856,9.4998 6.9962,18.05987 7.357,19.02237 0.5626,1.50092 0.03,1.75 -3.7444,1.75 -4.2676,0 -4.4469,-0.12814 -5.9465,-4.25 l -1.5461,-4.25 -7.0632,-0.29185 -7.0632,-0.29184 -1.425,4.29184 c -1.3455,4.05233 -1.6579,4.30901 -5.5973,4.59935 -2.9277,0.21577 -4.1708,-0.0825 -4.1672,-1 z"
         id="path4252" />
      <path
         inkscape:connector-curvature="0"
         style="fill:#ffffff;stroke:#000000;stroke-opacity:1"
         d="m 1481.9992,689.25 c -5e-4,-0.4125 -0.8634,-3 -1.9176,-5.75 -1.5915,-4.15157 -2.0406,-4.66063 -2.6468,-3 -0.4015,1.1 -1.3386,3.51746 -2.0824,5.37212 -0.7438,1.85467 -1.3524,3.54217 -1.3524,3.75 0,0.20784 1.8,0.37788 4,0.37788 2.2,0 3.9996,-0.3375 3.9992,-0.75 z"
         id="path4250" />
      <path
         inkscape:connector-curvature="0"
         style="fill:#ffffff;stroke:#000000;stroke-opacity:1"
         d="m 1501,687 v -19 h 9.5321 c 11.128,0 15.6285,1.47614 17.9015,5.87156 1.9681,3.80596 1.9892,7.4352 0.067,11.48658 -2.1071,4.44033 -4.9355,5.86849 -12.7264,6.42593 l -6.7739,0.48466 V 699.13437 706 h -4 -4 v -19 z"
         id="path4248" />
      <path
         inkscape:connector-curvature="0"
         style="fill:#ffffff;stroke:#000000;stroke-opacity:1"
         d="m 1520,683 c 1.1,-1.1 2,-2.45 2,-3 0,-2.57739 -4.1184,-5 -8.5,-5 h -4.5 v 5 5 h 4.5 c 3.1667,0 5.0926,-0.59259 6.5,-2 z"
         id="path4246" />
    </g>
  </g>
  <g
     id="1EQ">
    <path
       inkscape:connector-curvature="0"
       id="1EQ_area"
       d="m 1208.0291,812 c 54.992,-122.47309 131.1391,-292.19503 164.2087,-366 l 11.4257,-25.5 -237.4963,-0.25207 c -130.623,-0.13865 -237.71087,-0.0376 -237.97301,0.22455 -0.38159,0.38159 96.77801,219.55302 110.83821,250.02752 2.03,4.4 31.0907,69.50359 64.5793,144.67466 33.4886,75.17106 61.19,136.37106 61.5586,136 0.3687,-0.37107 28.6552,-62.99966 62.8588,-139.17466 z"
       style="fill:#ffffff;stroke:#000000;stroke-opacity:1" />
    <g
       style="stroke:#000000;stroke-opacity:1"
       id="1EQ_txt">
      <path
         inkscape:connector-curvature="0"
         style="fill:#ffffff;stroke:#000000;stroke-opacity:1"
         d="m 1187,634.21076 c -0.825,-0.27276 -2.6386,-1.29197 -4.0302,-2.26492 -2.1273,-1.48735 -3.2418,-1.60656 -7,-0.74882 -8.2531,1.88364 -17.5573,-2.5722 -20.6058,-9.86821 -1.7548,-4.19987 -1.7548,-14.45775 0,-18.65762 4.0256,-9.63467 17.7528,-13.37995 26.8627,-7.32916 7.2142,4.79163 9.9449,17.2765 5.784,26.44428 l -1.9454,4.28631 2.4673,1.1242 c 1.3571,0.61832 2.4515,1.61448 2.432,2.2137 -0.075,2.3134 -2.5229,5.27691 -3.9646,4.80024 z"
         id="path4242" />
      <path
         inkscape:connector-curvature="0"
         style="fill:#ffffff;stroke:#000000;stroke-opacity:1"
         d="m 1171.143,623.10953 c -1.8326,-1.16115 -0.5174,-5.10953 1.7019,-5.10953 0.9405,0 2.7592,0.73482 4.0414,1.63293 1.954,1.36865 2.4732,1.40911 3.2078,0.25 2.9334,-4.62848 2.0875,-13.79224 -1.6149,-17.49466 -3.2863,-3.28627 -9.3371,-3.27472 -13.1734,0.0251 -2.5893,2.22721 -2.8058,2.96685 -2.8058,9.58658 0,6.61973 0.2165,7.35937 2.8058,9.58658 1.5431,1.32738 3.7931,2.40653 5,2.39811 1.6124,-0.0113 1.8344,-0.2433 0.8372,-0.87516 z"
         id="path4240" />
      <path
         inkscape:connector-curvature="0"
         style="fill:#ffffff;stroke:#000000;stroke-opacity:1"
         d="m 1101,618.0147 v -12.9853 l -3.25,1.98156 c -4.5767,2.79047 -5.7513,2.53254 -5.7423,-1.26096 0.01,-2.74617 0.634,-3.60767 4.0475,-5.5572 2.2219,-1.26895 4.5407,-3.40645 5.1528,-4.75 0.8569,-1.88055 1.8817,-2.4428 4.4525,-2.4428 H 1109 v 19 19 h -4 -4 z"
         id="path4238" />
      <path
         inkscape:connector-curvature="0"
         style="fill:#ffffff;stroke:#000000;stroke-opacity:1"
         d="m 1121,612 v -19 h 14 14 v 3.5 3.5 h -10 -10 v 4 4 h 9 9 v 3.5 3.5 h -9 -9 v 4.5 4.5 h 10.5 10.5 v 3.5 3.5 h -14.5 -14.5 z"
         id="path4236" />
    </g>
  </g>
  <g
     id="1A">
    <path
       inkscape:connector-curvature="0"
       id="1A_area"
       d="m 1410.0403,361.36038 20.3473,-45.63961 -2.5338,-2.11039 c -1.3936,-1.16071 -11.4933,-9.98883 -22.4438,-19.61805 -75.4092,-66.31034 -158.4711,-128.67878 -240.839,-180.83805 l -18.929,-11.98674 -5.571,3.55988 c -33.6186,21.48236 -121.7485,85.17695 -176.571,127.6142 -41.84278,32.38983 -102.80905,82.21106 -102.18339,83.50359 0.17433,0.36014 9.28619,21.01729 20.24858,45.90479 L 901.4968,407 h 244.0982 244.0981 z"
       style="fill:#ffffff;stroke:#000000;stroke-opacity:1" />
    <g
       style="stroke:#000000;stroke-opacity:1"
       id="1A_txt">
      <path
         inkscape:connector-curvature="0"
         id="path4226"
         style="fill:#ffffff;stroke:#000000;stroke-opacity:1"
         d="m 1130.25,277 c -1.9433,2e-5 -3.5672,1.02524 -5.5371,3.49414 -1.5332,1.92158 -4.1207,4.18287 -5.75,5.02539 -2.4207,1.2518 -2.9629,2.16674 -2.9629,5.00586 0,4.03518 0.3765,4.1515 4.7734,1.4707 1.8008,-1.09794 3.4883,-1.99609 3.75,-1.99609 0.2617,0 0.4766,5.625 0.4766,12.5 V 315 h 4 4 v -19 -19 z m 25.3184,0.5 -5.0704,13 c -2.789,7.15 -6.0514,15.5875 -7.25,18.75 l -2.1796,5.75 h 4.3574 c 4.1502,0 4.4326,-0.19019 5.957,-4 l 1.6016,-4 h 7.0156 7.0156 l 1.6016,4 c 1.5264,3.81488 1.8019,4 5.9824,4 h 4.3848 l -1.4942,-3.75 c -0.822,-2.0625 -4.1357,-10.5 -7.3632,-18.75 l -5.8692,-15 h -4.3437 z m 4.291,11.5 c 0.6025,0 4.1406,8.8738 4.1406,10.38477 0,0.33869 -1.8,0.61523 -4,0.61523 -2.2,0 -4,-0.37025 -4,-0.82227 0,-1.69794 3.2156,-10.17773 3.8594,-10.17773 z" />
    </g>
  </g>
</svg>
